M48
; DRILL file {KiCad (5.1.5)-3} date 2020-04-21 오전 4:02:02
; FORMAT={-:-/ absolute / inch / decimal}
; #@! TF.CreationDate,2020-04-21T04:02:02+09:00
; #@! TF.GenerationSoftware,Kicad,Pcbnew,(5.1.5)-3
; #@! TF.FileFunction,Plated,1,2,PTH
FMAT,2
INCH
T1C0.0157
T2C0.0295
T3C0.0315
T4C0.0394
T5C0.0433
T6C0.0866
T7C0.1063
%
G90
G05
T1
X1.45Y-1.55
X1.45Y-1.75
X1.7Y-1.2
X1.75Y-0.85
X1.75Y-1.1
X1.8Y-0.3
X1.8Y-0.95
X2.4Y-1.025
T2
X2.3Y-0.875
X2.35Y-0.875
X2.4Y-0.875
T3
X2.45Y-1.925
X2.55Y-1.925
X0.5Y-1.2
X0.5Y-1.4
X0.3Y-1.2
X0.3Y-1.4
X2.45Y-1.575
X2.55Y-1.575
X1.0Y-1.2
X1.0Y-1.4
X0.3Y-2.15
X0.5Y-2.15
X0.8Y-1.2
X0.8Y-1.4
X1.35Y-0.7
X1.35Y-0.8
X1.35Y-0.9
X1.35Y-1.0
X1.35Y-1.1
X1.35Y-1.2
X1.35Y-1.3
X1.35Y-1.4
X1.35Y-1.5
X1.35Y-1.6
X1.35Y-1.7
X1.35Y-1.8
X1.35Y-1.9
X1.35Y-2.0
X1.35Y-2.1
X1.95Y-0.7
X1.95Y-0.8
X1.95Y-0.9
X1.95Y-1.0
X1.95Y-1.1
X1.95Y-1.2
X1.95Y-1.3
X1.95Y-1.4
X1.95Y-1.5
X1.95Y-1.6
X1.95Y-1.7
X1.95Y-1.8
X1.95Y-1.9
X1.95Y-2.0
X1.95Y-2.1
X0.8Y-2.15
X1.0Y-2.15
X2.15Y-0.675
X2.35Y-0.675
X0.3Y-1.7
X0.3Y-2.0
X0.4Y-1.7
X0.4Y-2.0
X0.5Y-1.7
X0.5Y-2.0
X2.45Y-1.75
X2.55Y-1.75
X0.8Y-1.7
X0.8Y-2.0
X0.9Y-1.7
X0.9Y-2.0
X1.0Y-1.7
X1.0Y-2.0
X2.45Y-2.1
X2.55Y-2.1
T4
X0.3Y-1.55
X2.35Y-1.75
X2.55Y-1.325
X2.25Y-0.2
X2.35Y-1.575
X2.55Y-1.175
X2.25Y-0.375
X2.55Y-0.375
X0.5Y-1.05
X1.0Y-1.55
X2.2Y-2.1
X2.2Y-1.575
X2.1Y-0.375
X1.05Y-0.2
X0.8Y-1.55
X2.3Y-1.175
X1.45Y-0.2
X1.55Y-0.2
X1.65Y-0.2
X1.75Y-0.2
X0.5Y-1.55
X2.1Y-0.2
X1.05Y-0.55
X2.2Y-1.75
X2.15Y-1.325
X2.2Y-1.925
X2.35Y-1.925
X2.4Y-0.2
X1.0Y-1.05
X2.55Y-0.2
X2.35Y-2.1
X2.4Y-0.375
T5
X0.8Y-0.9
X0.9Y-0.9
X1.0Y-0.9
X0.3Y-0.9
X0.4Y-0.9
X0.5Y-0.9
T6
X2.6Y-0.875
T7
X0.3Y-0.2
X0.55Y-0.2
X0.3Y-0.55
X0.8Y-0.55
X0.55Y-0.55
X0.8Y-0.2
T0
M30
