G04 #@! TF.GenerationSoftware,KiCad,Pcbnew,(5.1.5)-3*
G04 #@! TF.CreationDate,2020-04-21T04:00:00+09:00*
G04 #@! TF.ProjectId,qqq,7171712e-6b69-4636-9164-5f7063625858,rev?*
G04 #@! TF.SameCoordinates,Original*
G04 #@! TF.FileFunction,Legend,Top*
G04 #@! TF.FilePolarity,Positive*
%FSLAX46Y46*%
G04 Gerber Fmt 4.6, Leading zero omitted, Abs format (unit mm)*
G04 Created by KiCad (PCBNEW (5.1.5)-3) date 2020-04-21 04:00:00*
%MOMM*%
%LPD*%
G04 APERTURE LIST*
%ADD10C,0.120000*%
%ADD11C,0.150000*%
G04 APERTURE END LIST*
D10*
X62290000Y-3750000D02*
X59630000Y-3750000D01*
X62290000Y-3810000D02*
X62290000Y-3750000D01*
X59630000Y-3810000D02*
X59630000Y-3750000D01*
X62290000Y-3810000D02*
X59630000Y-3810000D01*
X62290000Y-5080000D02*
X62290000Y-6410000D01*
X62290000Y-6410000D02*
X60960000Y-6410000D01*
X63440000Y-8195000D02*
X64770000Y-8195000D01*
X63440000Y-9525000D02*
X63440000Y-8195000D01*
X63440000Y-10795000D02*
X66100000Y-10795000D01*
X66100000Y-10795000D02*
X66100000Y-10855000D01*
X63440000Y-10795000D02*
X63440000Y-10855000D01*
X63440000Y-10855000D02*
X66100000Y-10855000D01*
X52010000Y-8195000D02*
X53340000Y-8195000D01*
X52010000Y-9525000D02*
X52010000Y-8195000D01*
X52010000Y-10795000D02*
X54670000Y-10795000D01*
X54670000Y-10795000D02*
X54670000Y-10855000D01*
X52010000Y-10795000D02*
X52010000Y-10855000D01*
X52010000Y-10855000D02*
X54670000Y-10855000D01*
X55820000Y-8195000D02*
X57150000Y-8195000D01*
X55820000Y-9525000D02*
X55820000Y-8195000D01*
X55820000Y-10795000D02*
X58480000Y-10795000D01*
X58480000Y-10795000D02*
X58480000Y-10855000D01*
X55820000Y-10795000D02*
X55820000Y-10855000D01*
X55820000Y-10855000D02*
X58480000Y-10855000D01*
X66100000Y-3750000D02*
X63440000Y-3750000D01*
X66100000Y-3810000D02*
X66100000Y-3750000D01*
X63440000Y-3810000D02*
X63440000Y-3750000D01*
X66100000Y-3810000D02*
X63440000Y-3810000D01*
X66100000Y-5080000D02*
X66100000Y-6410000D01*
X66100000Y-6410000D02*
X64770000Y-6410000D01*
X54670000Y-3750000D02*
X52010000Y-3750000D01*
X54670000Y-3810000D02*
X54670000Y-3750000D01*
X52010000Y-3810000D02*
X52010000Y-3750000D01*
X54670000Y-3810000D02*
X52010000Y-3810000D01*
X54670000Y-5080000D02*
X54670000Y-6410000D01*
X54670000Y-6410000D02*
X53340000Y-6410000D01*
X58480000Y-3750000D02*
X55820000Y-3750000D01*
X58480000Y-3810000D02*
X58480000Y-3750000D01*
X55820000Y-3810000D02*
X55820000Y-3750000D01*
X58480000Y-3810000D02*
X55820000Y-3810000D01*
X58480000Y-5080000D02*
X58480000Y-6410000D01*
X58480000Y-6410000D02*
X57150000Y-6410000D01*
X59630000Y-8195000D02*
X60960000Y-8195000D01*
X59630000Y-9525000D02*
X59630000Y-8195000D01*
X59630000Y-10795000D02*
X62290000Y-10795000D01*
X62290000Y-10795000D02*
X62290000Y-10855000D01*
X59630000Y-10795000D02*
X59630000Y-10855000D01*
X59630000Y-10855000D02*
X62290000Y-10855000D01*
X50930000Y-13840000D02*
X32890000Y-13840000D01*
X50930000Y-57280000D02*
X50930000Y-13840000D01*
X32890000Y-57280000D02*
X50930000Y-57280000D01*
X35560000Y-54610000D02*
X32890000Y-54610000D01*
X35560000Y-19050000D02*
X35560000Y-54610000D01*
X35560000Y-19050000D02*
X32890000Y-19050000D01*
X48260000Y-54610000D02*
X50930000Y-54610000D01*
X48260000Y-16510000D02*
X48260000Y-54610000D01*
X48260000Y-16510000D02*
X50930000Y-16510000D01*
X32890000Y-13840000D02*
X32890000Y-16510000D01*
X32890000Y-19050000D02*
X32890000Y-57280000D01*
X35560000Y-16510000D02*
X32890000Y-16510000D01*
X35560000Y-19050000D02*
X35560000Y-16510000D01*
X58360000Y-45780000D02*
X61020000Y-45780000D01*
X58360000Y-45720000D02*
X58360000Y-45780000D01*
X61020000Y-45720000D02*
X61020000Y-45780000D01*
X58360000Y-45720000D02*
X61020000Y-45720000D01*
X58360000Y-44450000D02*
X58360000Y-43120000D01*
X58360000Y-43120000D02*
X59690000Y-43120000D01*
X57210000Y-50225000D02*
X57210000Y-47565000D01*
X57150000Y-50225000D02*
X57210000Y-50225000D01*
X57150000Y-47565000D02*
X57210000Y-47565000D01*
X57150000Y-50225000D02*
X57150000Y-47565000D01*
X55880000Y-50225000D02*
X54550000Y-50225000D01*
X54550000Y-50225000D02*
X54550000Y-48895000D01*
X54550000Y-41335000D02*
X54550000Y-40005000D01*
X55880000Y-41335000D02*
X54550000Y-41335000D01*
X57150000Y-41335000D02*
X57150000Y-38675000D01*
X57150000Y-38675000D02*
X57210000Y-38675000D01*
X57150000Y-41335000D02*
X57210000Y-41335000D01*
X57210000Y-41335000D02*
X57210000Y-38675000D01*
X58360000Y-41335000D02*
X61020000Y-41335000D01*
X58360000Y-41275000D02*
X58360000Y-41335000D01*
X61020000Y-41275000D02*
X61020000Y-41335000D01*
X58360000Y-41275000D02*
X61020000Y-41275000D01*
X58360000Y-40005000D02*
X58360000Y-38675000D01*
X58360000Y-38675000D02*
X59690000Y-38675000D01*
X58360000Y-47565000D02*
X59690000Y-47565000D01*
X58360000Y-48895000D02*
X58360000Y-47565000D01*
X58360000Y-50165000D02*
X61020000Y-50165000D01*
X61020000Y-50165000D02*
X61020000Y-50225000D01*
X58360000Y-50165000D02*
X58360000Y-50225000D01*
X58360000Y-50225000D02*
X61020000Y-50225000D01*
X54550000Y-45780000D02*
X54550000Y-44450000D01*
X55880000Y-45780000D02*
X54550000Y-45780000D01*
X57150000Y-45780000D02*
X57150000Y-43120000D01*
X57150000Y-43120000D02*
X57210000Y-43120000D01*
X57150000Y-45780000D02*
X57210000Y-45780000D01*
X57210000Y-45780000D02*
X57210000Y-43120000D01*
X63425225Y-39033620D02*
G75*
G02X63316728Y-40805000I1344775J-971380D01*
G01*
X63425225Y-47923620D02*
G75*
G02X63316728Y-49695000I1344775J-971380D01*
G01*
X63425225Y-43478620D02*
G75*
G02X63316728Y-45250000I1344775J-971380D01*
G01*
X53280000Y-34985000D02*
X55940000Y-34985000D01*
X53280000Y-34925000D02*
X53280000Y-34985000D01*
X55940000Y-34925000D02*
X55940000Y-34985000D01*
X53280000Y-34925000D02*
X55940000Y-34925000D01*
X53280000Y-33655000D02*
X53280000Y-32325000D01*
X53280000Y-32325000D02*
X54610000Y-32325000D01*
X58360000Y-52010000D02*
X59690000Y-52010000D01*
X58360000Y-53340000D02*
X58360000Y-52010000D01*
X58360000Y-54610000D02*
X61020000Y-54610000D01*
X61020000Y-54610000D02*
X61020000Y-54670000D01*
X58360000Y-54610000D02*
X58360000Y-54670000D01*
X58360000Y-54670000D02*
X61020000Y-54670000D01*
X57090000Y-28515000D02*
X58420000Y-28515000D01*
X57090000Y-29845000D02*
X57090000Y-28515000D01*
X57090000Y-31115000D02*
X59750000Y-31115000D01*
X59750000Y-31115000D02*
X59750000Y-31175000D01*
X57090000Y-31115000D02*
X57090000Y-31175000D01*
X57090000Y-31175000D02*
X59750000Y-31175000D01*
X57210000Y-54670000D02*
X57210000Y-52010000D01*
X57150000Y-54670000D02*
X57210000Y-54670000D01*
X57150000Y-52010000D02*
X57210000Y-52010000D01*
X57150000Y-54670000D02*
X57150000Y-52010000D01*
X55880000Y-54670000D02*
X54550000Y-54670000D01*
X54550000Y-54670000D02*
X54550000Y-53340000D01*
X61410000Y-17145000D02*
G75*
G03X61410000Y-17145000I-1720000J0D01*
G01*
X57970000Y-17145000D02*
X55710000Y-17145000D01*
X66100000Y-31175000D02*
X66100000Y-28515000D01*
X66040000Y-31175000D02*
X66100000Y-31175000D01*
X66040000Y-28515000D02*
X66100000Y-28515000D01*
X66040000Y-31175000D02*
X66040000Y-28515000D01*
X64770000Y-31175000D02*
X63440000Y-31175000D01*
X63440000Y-31175000D02*
X63440000Y-29845000D01*
X63440000Y-34985000D02*
X63440000Y-33655000D01*
X64770000Y-34985000D02*
X63440000Y-34985000D01*
X66040000Y-34985000D02*
X66040000Y-32325000D01*
X66040000Y-32325000D02*
X66100000Y-32325000D01*
X66040000Y-34985000D02*
X66100000Y-34985000D01*
X66100000Y-34985000D02*
X66100000Y-32325000D01*
X57890000Y-24075000D02*
X61490000Y-24075000D01*
X57851522Y-24063478D02*
G75*
G02X59690000Y-19625000I1838478J1838478D01*
G01*
X61528478Y-24063478D02*
G75*
G03X59690000Y-19625000I-1838478J1838478D01*
G01*
X28000000Y-15300000D02*
X28000000Y-12640000D01*
X27940000Y-15300000D02*
X28000000Y-15300000D01*
X27940000Y-12640000D02*
X28000000Y-12640000D01*
X27940000Y-15300000D02*
X27940000Y-12640000D01*
X26670000Y-15300000D02*
X25340000Y-15300000D01*
X25340000Y-15300000D02*
X25340000Y-13970000D01*
X21650000Y-40700000D02*
X21650000Y-38040000D01*
X21590000Y-40700000D02*
X21650000Y-40700000D01*
X21590000Y-38040000D02*
X21650000Y-38040000D01*
X21590000Y-40700000D02*
X21590000Y-38040000D01*
X20320000Y-40700000D02*
X18990000Y-40700000D01*
X18990000Y-40700000D02*
X18990000Y-39370000D01*
X24070000Y-40700000D02*
X24070000Y-39370000D01*
X25400000Y-40700000D02*
X24070000Y-40700000D01*
X26670000Y-40700000D02*
X26670000Y-38040000D01*
X26670000Y-38040000D02*
X26730000Y-38040000D01*
X26670000Y-40700000D02*
X26730000Y-40700000D01*
X26730000Y-40700000D02*
X26730000Y-38040000D01*
X8950000Y-40700000D02*
X8950000Y-38040000D01*
X8890000Y-40700000D02*
X8950000Y-40700000D01*
X8890000Y-38040000D02*
X8950000Y-38040000D01*
X8890000Y-40700000D02*
X8890000Y-38040000D01*
X7620000Y-40700000D02*
X6290000Y-40700000D01*
X6290000Y-40700000D02*
X6290000Y-39370000D01*
X11370000Y-40700000D02*
X11370000Y-39370000D01*
X12700000Y-40700000D02*
X11370000Y-40700000D01*
X13970000Y-40700000D02*
X13970000Y-38040000D01*
X13970000Y-38040000D02*
X14030000Y-38040000D01*
X13970000Y-40700000D02*
X14030000Y-40700000D01*
X14030000Y-40700000D02*
X14030000Y-38040000D01*
X25340000Y-6410000D02*
X25340000Y-5080000D01*
X26670000Y-6410000D02*
X25340000Y-6410000D01*
X27940000Y-6410000D02*
X27940000Y-3750000D01*
X27940000Y-3750000D02*
X28000000Y-3750000D01*
X27940000Y-6410000D02*
X28000000Y-6410000D01*
X28000000Y-6410000D02*
X28000000Y-3750000D01*
X17740000Y-19590000D02*
X27980000Y-19590000D01*
X17740000Y-24231000D02*
X27980000Y-24231000D01*
X17740000Y-19590000D02*
X17740000Y-24231000D01*
X27980000Y-19590000D02*
X27980000Y-24231000D01*
X17740000Y-21100000D02*
X27980000Y-21100000D01*
X21010000Y-19590000D02*
X21010000Y-21100000D01*
X24711000Y-19590000D02*
X24711000Y-21100000D01*
X12011000Y-19590000D02*
X12011000Y-21100000D01*
X8310000Y-19590000D02*
X8310000Y-21100000D01*
X5040000Y-21100000D02*
X15280000Y-21100000D01*
X15280000Y-19590000D02*
X15280000Y-24231000D01*
X5040000Y-19590000D02*
X5040000Y-24231000D01*
X5040000Y-24231000D02*
X15280000Y-24231000D01*
X5040000Y-19590000D02*
X15280000Y-19590000D01*
X22040000Y-54610000D02*
G75*
G03X22040000Y-54610000I-1720000J0D01*
G01*
X22040000Y-54610000D02*
X24300000Y-54610000D01*
X9340000Y-54610000D02*
X11600000Y-54610000D01*
X9340000Y-54610000D02*
G75*
G03X9340000Y-54610000I-1720000J0D01*
G01*
X22040000Y-30480000D02*
G75*
G03X22040000Y-30480000I-1720000J0D01*
G01*
X20320000Y-32200000D02*
X20320000Y-34460000D01*
X27120000Y-30480000D02*
G75*
G03X27120000Y-30480000I-1720000J0D01*
G01*
X25400000Y-32200000D02*
X25400000Y-34460000D01*
X7620000Y-32200000D02*
X7620000Y-34460000D01*
X9340000Y-30480000D02*
G75*
G03X9340000Y-30480000I-1720000J0D01*
G01*
X12700000Y-32200000D02*
X12700000Y-34460000D01*
X14420000Y-30480000D02*
G75*
G03X14420000Y-30480000I-1720000J0D01*
G01*
X18990000Y-45990000D02*
G75*
G02X18990000Y-47990000I0J-1000000D01*
G01*
X18990000Y-47990000D02*
X18990000Y-49640000D01*
X18990000Y-49640000D02*
X26730000Y-49640000D01*
X26730000Y-49640000D02*
X26730000Y-44340000D01*
X26730000Y-44340000D02*
X18990000Y-44340000D01*
X18990000Y-44340000D02*
X18990000Y-45990000D01*
X6290000Y-44340000D02*
X6290000Y-45990000D01*
X14030000Y-44340000D02*
X6290000Y-44340000D01*
X14030000Y-49640000D02*
X14030000Y-44340000D01*
X6290000Y-49640000D02*
X14030000Y-49640000D01*
X6290000Y-47990000D02*
X6290000Y-49640000D01*
X6290000Y-45990000D02*
G75*
G02X6290000Y-47990000I0J-1000000D01*
G01*
X26730000Y-28000000D02*
X26730000Y-25340000D01*
X26670000Y-28000000D02*
X26730000Y-28000000D01*
X26670000Y-25340000D02*
X26730000Y-25340000D01*
X26670000Y-28000000D02*
X26670000Y-25340000D01*
X25400000Y-28000000D02*
X24070000Y-28000000D01*
X24070000Y-28000000D02*
X24070000Y-26670000D01*
X11370000Y-28000000D02*
X11370000Y-26670000D01*
X12700000Y-28000000D02*
X11370000Y-28000000D01*
X13970000Y-28000000D02*
X13970000Y-25340000D01*
X13970000Y-25340000D02*
X14030000Y-25340000D01*
X13970000Y-28000000D02*
X14030000Y-28000000D01*
X14030000Y-28000000D02*
X14030000Y-25340000D01*
X63425225Y-52368620D02*
G75*
G02X63316728Y-54140000I1344775J-971380D01*
G01*
X35500000Y-3750000D02*
X35500000Y-6410000D01*
X43180000Y-3750000D02*
X35500000Y-3750000D01*
X43180000Y-6410000D02*
X35500000Y-6410000D01*
X43180000Y-3750000D02*
X43180000Y-6410000D01*
X44450000Y-3750000D02*
X45780000Y-3750000D01*
X45780000Y-3750000D02*
X45780000Y-5080000D01*
D11*
X59721904Y-7862380D02*
X59721904Y-6862380D01*
X59721904Y-7338571D02*
X60293333Y-7338571D01*
X60293333Y-7862380D02*
X60293333Y-6862380D01*
X61293333Y-7862380D02*
X60721904Y-7862380D01*
X61007619Y-7862380D02*
X61007619Y-6862380D01*
X60912380Y-7005238D01*
X60817142Y-7100476D01*
X60721904Y-7148095D01*
X62150476Y-7195714D02*
X62150476Y-7862380D01*
X61912380Y-6814761D02*
X61674285Y-7529047D01*
X62293333Y-7529047D01*
X63531904Y-7647380D02*
X63531904Y-6647380D01*
X63531904Y-7123571D02*
X64103333Y-7123571D01*
X64103333Y-7647380D02*
X64103333Y-6647380D01*
X65103333Y-7647380D02*
X64531904Y-7647380D01*
X64817619Y-7647380D02*
X64817619Y-6647380D01*
X64722380Y-6790238D01*
X64627142Y-6885476D01*
X64531904Y-6933095D01*
X65436666Y-6647380D02*
X66103333Y-6647380D01*
X65674761Y-7647380D01*
X52101904Y-7647380D02*
X52101904Y-6647380D01*
X52101904Y-7123571D02*
X52673333Y-7123571D01*
X52673333Y-7647380D02*
X52673333Y-6647380D01*
X53673333Y-7647380D02*
X53101904Y-7647380D01*
X53387619Y-7647380D02*
X53387619Y-6647380D01*
X53292380Y-6790238D01*
X53197142Y-6885476D01*
X53101904Y-6933095D01*
X54625714Y-7647380D02*
X54054285Y-7647380D01*
X54340000Y-7647380D02*
X54340000Y-6647380D01*
X54244761Y-6790238D01*
X54149523Y-6885476D01*
X54054285Y-6933095D01*
X55911904Y-7647380D02*
X55911904Y-6647380D01*
X55911904Y-7123571D02*
X56483333Y-7123571D01*
X56483333Y-7647380D02*
X56483333Y-6647380D01*
X57483333Y-7647380D02*
X56911904Y-7647380D01*
X57197619Y-7647380D02*
X57197619Y-6647380D01*
X57102380Y-6790238D01*
X57007142Y-6885476D01*
X56911904Y-6933095D01*
X57816666Y-6647380D02*
X58435714Y-6647380D01*
X58102380Y-7028333D01*
X58245238Y-7028333D01*
X58340476Y-7075952D01*
X58388095Y-7123571D01*
X58435714Y-7218809D01*
X58435714Y-7456904D01*
X58388095Y-7552142D01*
X58340476Y-7599761D01*
X58245238Y-7647380D01*
X57959523Y-7647380D01*
X57864285Y-7599761D01*
X57816666Y-7552142D01*
X63531904Y-7862380D02*
X63531904Y-6862380D01*
X63531904Y-7338571D02*
X64103333Y-7338571D01*
X64103333Y-7862380D02*
X64103333Y-6862380D01*
X65103333Y-7862380D02*
X64531904Y-7862380D01*
X64817619Y-7862380D02*
X64817619Y-6862380D01*
X64722380Y-7005238D01*
X64627142Y-7100476D01*
X64531904Y-7148095D01*
X65484285Y-6957619D02*
X65531904Y-6910000D01*
X65627142Y-6862380D01*
X65865238Y-6862380D01*
X65960476Y-6910000D01*
X66008095Y-6957619D01*
X66055714Y-7052857D01*
X66055714Y-7148095D01*
X66008095Y-7290952D01*
X65436666Y-7862380D01*
X66055714Y-7862380D01*
X52101904Y-7862380D02*
X52101904Y-6862380D01*
X52101904Y-7338571D02*
X52673333Y-7338571D01*
X52673333Y-7862380D02*
X52673333Y-6862380D01*
X53673333Y-7862380D02*
X53101904Y-7862380D01*
X53387619Y-7862380D02*
X53387619Y-6862380D01*
X53292380Y-7005238D01*
X53197142Y-7100476D01*
X53101904Y-7148095D01*
X54244761Y-7290952D02*
X54149523Y-7243333D01*
X54101904Y-7195714D01*
X54054285Y-7100476D01*
X54054285Y-7052857D01*
X54101904Y-6957619D01*
X54149523Y-6910000D01*
X54244761Y-6862380D01*
X54435238Y-6862380D01*
X54530476Y-6910000D01*
X54578095Y-6957619D01*
X54625714Y-7052857D01*
X54625714Y-7100476D01*
X54578095Y-7195714D01*
X54530476Y-7243333D01*
X54435238Y-7290952D01*
X54244761Y-7290952D01*
X54149523Y-7338571D01*
X54101904Y-7386190D01*
X54054285Y-7481428D01*
X54054285Y-7671904D01*
X54101904Y-7767142D01*
X54149523Y-7814761D01*
X54244761Y-7862380D01*
X54435238Y-7862380D01*
X54530476Y-7814761D01*
X54578095Y-7767142D01*
X54625714Y-7671904D01*
X54625714Y-7481428D01*
X54578095Y-7386190D01*
X54530476Y-7338571D01*
X54435238Y-7290952D01*
X55911904Y-7862380D02*
X55911904Y-6862380D01*
X55911904Y-7338571D02*
X56483333Y-7338571D01*
X56483333Y-7862380D02*
X56483333Y-6862380D01*
X57483333Y-7862380D02*
X56911904Y-7862380D01*
X57197619Y-7862380D02*
X57197619Y-6862380D01*
X57102380Y-7005238D01*
X57007142Y-7100476D01*
X56911904Y-7148095D01*
X58340476Y-6862380D02*
X58150000Y-6862380D01*
X58054761Y-6910000D01*
X58007142Y-6957619D01*
X57911904Y-7100476D01*
X57864285Y-7290952D01*
X57864285Y-7671904D01*
X57911904Y-7767142D01*
X57959523Y-7814761D01*
X58054761Y-7862380D01*
X58245238Y-7862380D01*
X58340476Y-7814761D01*
X58388095Y-7767142D01*
X58435714Y-7671904D01*
X58435714Y-7433809D01*
X58388095Y-7338571D01*
X58340476Y-7290952D01*
X58245238Y-7243333D01*
X58054761Y-7243333D01*
X57959523Y-7290952D01*
X57911904Y-7338571D01*
X57864285Y-7433809D01*
X59721904Y-7647380D02*
X59721904Y-6647380D01*
X59721904Y-7123571D02*
X60293333Y-7123571D01*
X60293333Y-7647380D02*
X60293333Y-6647380D01*
X61293333Y-7647380D02*
X60721904Y-7647380D01*
X61007619Y-7647380D02*
X61007619Y-6647380D01*
X60912380Y-6790238D01*
X60817142Y-6885476D01*
X60721904Y-6933095D01*
X62198095Y-6647380D02*
X61721904Y-6647380D01*
X61674285Y-7123571D01*
X61721904Y-7075952D01*
X61817142Y-7028333D01*
X62055238Y-7028333D01*
X62150476Y-7075952D01*
X62198095Y-7123571D01*
X62245714Y-7218809D01*
X62245714Y-7456904D01*
X62198095Y-7552142D01*
X62150476Y-7599761D01*
X62055238Y-7647380D01*
X61817142Y-7647380D01*
X61721904Y-7599761D01*
X61674285Y-7552142D01*
X41195714Y-12866666D02*
X41671904Y-12866666D01*
X41100476Y-13152380D02*
X41433809Y-12152380D01*
X41767142Y-13152380D01*
X42624285Y-13152380D02*
X42052857Y-13152380D01*
X42338571Y-13152380D02*
X42338571Y-12152380D01*
X42243333Y-12295238D01*
X42148095Y-12390476D01*
X42052857Y-12438095D01*
X58928095Y-42572380D02*
X58928095Y-41572380D01*
X58928095Y-42048571D02*
X59499523Y-42048571D01*
X59499523Y-42572380D02*
X59499523Y-41572380D01*
X60118571Y-42000952D02*
X60023333Y-41953333D01*
X59975714Y-41905714D01*
X59928095Y-41810476D01*
X59928095Y-41762857D01*
X59975714Y-41667619D01*
X60023333Y-41620000D01*
X60118571Y-41572380D01*
X60309047Y-41572380D01*
X60404285Y-41620000D01*
X60451904Y-41667619D01*
X60499523Y-41762857D01*
X60499523Y-41810476D01*
X60451904Y-41905714D01*
X60404285Y-41953333D01*
X60309047Y-42000952D01*
X60118571Y-42000952D01*
X60023333Y-42048571D01*
X59975714Y-42096190D01*
X59928095Y-42191428D01*
X59928095Y-42381904D01*
X59975714Y-42477142D01*
X60023333Y-42524761D01*
X60118571Y-42572380D01*
X60309047Y-42572380D01*
X60404285Y-42524761D01*
X60451904Y-42477142D01*
X60499523Y-42381904D01*
X60499523Y-42191428D01*
X60451904Y-42096190D01*
X60404285Y-42048571D01*
X60309047Y-42000952D01*
X54002380Y-49656904D02*
X53002380Y-49656904D01*
X53478571Y-49656904D02*
X53478571Y-49085476D01*
X54002380Y-49085476D02*
X53002380Y-49085476D01*
X53002380Y-48133095D02*
X53002380Y-48609285D01*
X53478571Y-48656904D01*
X53430952Y-48609285D01*
X53383333Y-48514047D01*
X53383333Y-48275952D01*
X53430952Y-48180714D01*
X53478571Y-48133095D01*
X53573809Y-48085476D01*
X53811904Y-48085476D01*
X53907142Y-48133095D01*
X53954761Y-48180714D01*
X54002380Y-48275952D01*
X54002380Y-48514047D01*
X53954761Y-48609285D01*
X53907142Y-48656904D01*
X54002380Y-40766904D02*
X53002380Y-40766904D01*
X53478571Y-40766904D02*
X53478571Y-40195476D01*
X54002380Y-40195476D02*
X53002380Y-40195476D01*
X54002380Y-39671666D02*
X54002380Y-39481190D01*
X53954761Y-39385952D01*
X53907142Y-39338333D01*
X53764285Y-39243095D01*
X53573809Y-39195476D01*
X53192857Y-39195476D01*
X53097619Y-39243095D01*
X53050000Y-39290714D01*
X53002380Y-39385952D01*
X53002380Y-39576428D01*
X53050000Y-39671666D01*
X53097619Y-39719285D01*
X53192857Y-39766904D01*
X53430952Y-39766904D01*
X53526190Y-39719285D01*
X53573809Y-39671666D01*
X53621428Y-39576428D01*
X53621428Y-39385952D01*
X53573809Y-39290714D01*
X53526190Y-39243095D01*
X53430952Y-39195476D01*
X58451904Y-38127380D02*
X58451904Y-37127380D01*
X58451904Y-37603571D02*
X59023333Y-37603571D01*
X59023333Y-38127380D02*
X59023333Y-37127380D01*
X60023333Y-38127380D02*
X59451904Y-38127380D01*
X59737619Y-38127380D02*
X59737619Y-37127380D01*
X59642380Y-37270238D01*
X59547142Y-37365476D01*
X59451904Y-37413095D01*
X60642380Y-37127380D02*
X60737619Y-37127380D01*
X60832857Y-37175000D01*
X60880476Y-37222619D01*
X60928095Y-37317857D01*
X60975714Y-37508333D01*
X60975714Y-37746428D01*
X60928095Y-37936904D01*
X60880476Y-38032142D01*
X60832857Y-38079761D01*
X60737619Y-38127380D01*
X60642380Y-38127380D01*
X60547142Y-38079761D01*
X60499523Y-38032142D01*
X60451904Y-37936904D01*
X60404285Y-37746428D01*
X60404285Y-37508333D01*
X60451904Y-37317857D01*
X60499523Y-37222619D01*
X60547142Y-37175000D01*
X60642380Y-37127380D01*
X58928095Y-47017380D02*
X58928095Y-46017380D01*
X58928095Y-46493571D02*
X59499523Y-46493571D01*
X59499523Y-47017380D02*
X59499523Y-46017380D01*
X60404285Y-46017380D02*
X60213809Y-46017380D01*
X60118571Y-46065000D01*
X60070952Y-46112619D01*
X59975714Y-46255476D01*
X59928095Y-46445952D01*
X59928095Y-46826904D01*
X59975714Y-46922142D01*
X60023333Y-46969761D01*
X60118571Y-47017380D01*
X60309047Y-47017380D01*
X60404285Y-46969761D01*
X60451904Y-46922142D01*
X60499523Y-46826904D01*
X60499523Y-46588809D01*
X60451904Y-46493571D01*
X60404285Y-46445952D01*
X60309047Y-46398333D01*
X60118571Y-46398333D01*
X60023333Y-46445952D01*
X59975714Y-46493571D01*
X59928095Y-46588809D01*
X54002380Y-45211904D02*
X53002380Y-45211904D01*
X53478571Y-45211904D02*
X53478571Y-44640476D01*
X54002380Y-44640476D02*
X53002380Y-44640476D01*
X53002380Y-44259523D02*
X53002380Y-43592857D01*
X54002380Y-44021428D01*
X63333333Y-43177380D02*
X63000000Y-42701190D01*
X62761904Y-43177380D02*
X62761904Y-42177380D01*
X63142857Y-42177380D01*
X63238095Y-42225000D01*
X63285714Y-42272619D01*
X63333333Y-42367857D01*
X63333333Y-42510714D01*
X63285714Y-42605952D01*
X63238095Y-42653571D01*
X63142857Y-42701190D01*
X62761904Y-42701190D01*
X64238095Y-42177380D02*
X63761904Y-42177380D01*
X63714285Y-42653571D01*
X63761904Y-42605952D01*
X63857142Y-42558333D01*
X64095238Y-42558333D01*
X64190476Y-42605952D01*
X64238095Y-42653571D01*
X64285714Y-42748809D01*
X64285714Y-42986904D01*
X64238095Y-43082142D01*
X64190476Y-43129761D01*
X64095238Y-43177380D01*
X63857142Y-43177380D01*
X63761904Y-43129761D01*
X63714285Y-43082142D01*
X63333333Y-52067380D02*
X63000000Y-51591190D01*
X62761904Y-52067380D02*
X62761904Y-51067380D01*
X63142857Y-51067380D01*
X63238095Y-51115000D01*
X63285714Y-51162619D01*
X63333333Y-51257857D01*
X63333333Y-51400714D01*
X63285714Y-51495952D01*
X63238095Y-51543571D01*
X63142857Y-51591190D01*
X62761904Y-51591190D01*
X63666666Y-51067380D02*
X64285714Y-51067380D01*
X63952380Y-51448333D01*
X64095238Y-51448333D01*
X64190476Y-51495952D01*
X64238095Y-51543571D01*
X64285714Y-51638809D01*
X64285714Y-51876904D01*
X64238095Y-51972142D01*
X64190476Y-52019761D01*
X64095238Y-52067380D01*
X63809523Y-52067380D01*
X63714285Y-52019761D01*
X63666666Y-51972142D01*
X63333333Y-47622380D02*
X63000000Y-47146190D01*
X62761904Y-47622380D02*
X62761904Y-46622380D01*
X63142857Y-46622380D01*
X63238095Y-46670000D01*
X63285714Y-46717619D01*
X63333333Y-46812857D01*
X63333333Y-46955714D01*
X63285714Y-47050952D01*
X63238095Y-47098571D01*
X63142857Y-47146190D01*
X62761904Y-47146190D01*
X64190476Y-46955714D02*
X64190476Y-47622380D01*
X63952380Y-46574761D02*
X63714285Y-47289047D01*
X64333333Y-47289047D01*
X53848095Y-31777380D02*
X53848095Y-30777380D01*
X53848095Y-31253571D02*
X54419523Y-31253571D01*
X54419523Y-31777380D02*
X54419523Y-30777380D01*
X55419523Y-31777380D02*
X54848095Y-31777380D01*
X55133809Y-31777380D02*
X55133809Y-30777380D01*
X55038571Y-30920238D01*
X54943333Y-31015476D01*
X54848095Y-31063095D01*
X58928095Y-51462380D02*
X58928095Y-50462380D01*
X58928095Y-50938571D02*
X59499523Y-50938571D01*
X59499523Y-51462380D02*
X59499523Y-50462380D01*
X60404285Y-50795714D02*
X60404285Y-51462380D01*
X60166190Y-50414761D02*
X59928095Y-51129047D01*
X60547142Y-51129047D01*
X57658095Y-27967380D02*
X57658095Y-26967380D01*
X57658095Y-27443571D02*
X58229523Y-27443571D01*
X58229523Y-27967380D02*
X58229523Y-26967380D01*
X58658095Y-27062619D02*
X58705714Y-27015000D01*
X58800952Y-26967380D01*
X59039047Y-26967380D01*
X59134285Y-27015000D01*
X59181904Y-27062619D01*
X59229523Y-27157857D01*
X59229523Y-27253095D01*
X59181904Y-27395952D01*
X58610476Y-27967380D01*
X59229523Y-27967380D01*
X54002380Y-54101904D02*
X53002380Y-54101904D01*
X53478571Y-54101904D02*
X53478571Y-53530476D01*
X54002380Y-53530476D02*
X53002380Y-53530476D01*
X53002380Y-53149523D02*
X53002380Y-52530476D01*
X53383333Y-52863809D01*
X53383333Y-52720952D01*
X53430952Y-52625714D01*
X53478571Y-52578095D01*
X53573809Y-52530476D01*
X53811904Y-52530476D01*
X53907142Y-52578095D01*
X53954761Y-52625714D01*
X54002380Y-52720952D01*
X54002380Y-53006666D01*
X53954761Y-53101904D01*
X53907142Y-53149523D01*
X56983333Y-20317380D02*
X56650000Y-19841190D01*
X56411904Y-20317380D02*
X56411904Y-19317380D01*
X56792857Y-19317380D01*
X56888095Y-19365000D01*
X56935714Y-19412619D01*
X56983333Y-19507857D01*
X56983333Y-19650714D01*
X56935714Y-19745952D01*
X56888095Y-19793571D01*
X56792857Y-19841190D01*
X56411904Y-19841190D01*
X57935714Y-20317380D02*
X57364285Y-20317380D01*
X57650000Y-20317380D02*
X57650000Y-19317380D01*
X57554761Y-19460238D01*
X57459523Y-19555476D01*
X57364285Y-19603095D01*
X62892380Y-31083095D02*
X61892380Y-31083095D01*
X62368571Y-31083095D02*
X62368571Y-30511666D01*
X62892380Y-30511666D02*
X61892380Y-30511666D01*
X61892380Y-30130714D02*
X61892380Y-29511666D01*
X62273333Y-29845000D01*
X62273333Y-29702142D01*
X62320952Y-29606904D01*
X62368571Y-29559285D01*
X62463809Y-29511666D01*
X62701904Y-29511666D01*
X62797142Y-29559285D01*
X62844761Y-29606904D01*
X62892380Y-29702142D01*
X62892380Y-29987857D01*
X62844761Y-30083095D01*
X62797142Y-30130714D01*
X62225714Y-28654523D02*
X62892380Y-28654523D01*
X61844761Y-28892619D02*
X62559047Y-29130714D01*
X62559047Y-28511666D01*
X62892380Y-34893095D02*
X61892380Y-34893095D01*
X62368571Y-34893095D02*
X62368571Y-34321666D01*
X62892380Y-34321666D02*
X61892380Y-34321666D01*
X61892380Y-33940714D02*
X61892380Y-33321666D01*
X62273333Y-33655000D01*
X62273333Y-33512142D01*
X62320952Y-33416904D01*
X62368571Y-33369285D01*
X62463809Y-33321666D01*
X62701904Y-33321666D01*
X62797142Y-33369285D01*
X62844761Y-33416904D01*
X62892380Y-33512142D01*
X62892380Y-33797857D01*
X62844761Y-33893095D01*
X62797142Y-33940714D01*
X61892380Y-32988333D02*
X61892380Y-32369285D01*
X62273333Y-32702619D01*
X62273333Y-32559761D01*
X62320952Y-32464523D01*
X62368571Y-32416904D01*
X62463809Y-32369285D01*
X62701904Y-32369285D01*
X62797142Y-32416904D01*
X62844761Y-32464523D01*
X62892380Y-32559761D01*
X62892380Y-32845476D01*
X62844761Y-32940714D01*
X62797142Y-32988333D01*
X59594761Y-19212619D02*
X59499523Y-19165000D01*
X59404285Y-19069761D01*
X59261428Y-18926904D01*
X59166190Y-18879285D01*
X59070952Y-18879285D01*
X59118571Y-19117380D02*
X59023333Y-19069761D01*
X58928095Y-18974523D01*
X58880476Y-18784047D01*
X58880476Y-18450714D01*
X58928095Y-18260238D01*
X59023333Y-18165000D01*
X59118571Y-18117380D01*
X59309047Y-18117380D01*
X59404285Y-18165000D01*
X59499523Y-18260238D01*
X59547142Y-18450714D01*
X59547142Y-18784047D01*
X59499523Y-18974523D01*
X59404285Y-19069761D01*
X59309047Y-19117380D01*
X59118571Y-19117380D01*
X60499523Y-19117380D02*
X59928095Y-19117380D01*
X60213809Y-19117380D02*
X60213809Y-18117380D01*
X60118571Y-18260238D01*
X60023333Y-18355476D01*
X59928095Y-18403095D01*
X24792380Y-15208095D02*
X23792380Y-15208095D01*
X24268571Y-15208095D02*
X24268571Y-14636666D01*
X24792380Y-14636666D02*
X23792380Y-14636666D01*
X23792380Y-14255714D02*
X23792380Y-13636666D01*
X24173333Y-13970000D01*
X24173333Y-13827142D01*
X24220952Y-13731904D01*
X24268571Y-13684285D01*
X24363809Y-13636666D01*
X24601904Y-13636666D01*
X24697142Y-13684285D01*
X24744761Y-13731904D01*
X24792380Y-13827142D01*
X24792380Y-14112857D01*
X24744761Y-14208095D01*
X24697142Y-14255714D01*
X23887619Y-13255714D02*
X23840000Y-13208095D01*
X23792380Y-13112857D01*
X23792380Y-12874761D01*
X23840000Y-12779523D01*
X23887619Y-12731904D01*
X23982857Y-12684285D01*
X24078095Y-12684285D01*
X24220952Y-12731904D01*
X24792380Y-13303333D01*
X24792380Y-12684285D01*
X18442380Y-40608095D02*
X17442380Y-40608095D01*
X17918571Y-40608095D02*
X17918571Y-40036666D01*
X18442380Y-40036666D02*
X17442380Y-40036666D01*
X18442380Y-39036666D02*
X18442380Y-39608095D01*
X18442380Y-39322380D02*
X17442380Y-39322380D01*
X17585238Y-39417619D01*
X17680476Y-39512857D01*
X17728095Y-39608095D01*
X18442380Y-38560476D02*
X18442380Y-38370000D01*
X18394761Y-38274761D01*
X18347142Y-38227142D01*
X18204285Y-38131904D01*
X18013809Y-38084285D01*
X17632857Y-38084285D01*
X17537619Y-38131904D01*
X17490000Y-38179523D01*
X17442380Y-38274761D01*
X17442380Y-38465238D01*
X17490000Y-38560476D01*
X17537619Y-38608095D01*
X17632857Y-38655714D01*
X17870952Y-38655714D01*
X17966190Y-38608095D01*
X18013809Y-38560476D01*
X18061428Y-38465238D01*
X18061428Y-38274761D01*
X18013809Y-38179523D01*
X17966190Y-38131904D01*
X17870952Y-38084285D01*
X23522380Y-40608095D02*
X22522380Y-40608095D01*
X22998571Y-40608095D02*
X22998571Y-40036666D01*
X23522380Y-40036666D02*
X22522380Y-40036666D01*
X22617619Y-39608095D02*
X22570000Y-39560476D01*
X22522380Y-39465238D01*
X22522380Y-39227142D01*
X22570000Y-39131904D01*
X22617619Y-39084285D01*
X22712857Y-39036666D01*
X22808095Y-39036666D01*
X22950952Y-39084285D01*
X23522380Y-39655714D01*
X23522380Y-39036666D01*
X22522380Y-38417619D02*
X22522380Y-38322380D01*
X22570000Y-38227142D01*
X22617619Y-38179523D01*
X22712857Y-38131904D01*
X22903333Y-38084285D01*
X23141428Y-38084285D01*
X23331904Y-38131904D01*
X23427142Y-38179523D01*
X23474761Y-38227142D01*
X23522380Y-38322380D01*
X23522380Y-38417619D01*
X23474761Y-38512857D01*
X23427142Y-38560476D01*
X23331904Y-38608095D01*
X23141428Y-38655714D01*
X22903333Y-38655714D01*
X22712857Y-38608095D01*
X22617619Y-38560476D01*
X22570000Y-38512857D01*
X22522380Y-38417619D01*
X5742380Y-40608095D02*
X4742380Y-40608095D01*
X5218571Y-40608095D02*
X5218571Y-40036666D01*
X5742380Y-40036666D02*
X4742380Y-40036666D01*
X4837619Y-39608095D02*
X4790000Y-39560476D01*
X4742380Y-39465238D01*
X4742380Y-39227142D01*
X4790000Y-39131904D01*
X4837619Y-39084285D01*
X4932857Y-39036666D01*
X5028095Y-39036666D01*
X5170952Y-39084285D01*
X5742380Y-39655714D01*
X5742380Y-39036666D01*
X5742380Y-38084285D02*
X5742380Y-38655714D01*
X5742380Y-38370000D02*
X4742380Y-38370000D01*
X4885238Y-38465238D01*
X4980476Y-38560476D01*
X5028095Y-38655714D01*
X10822380Y-40608095D02*
X9822380Y-40608095D01*
X10298571Y-40608095D02*
X10298571Y-40036666D01*
X10822380Y-40036666D02*
X9822380Y-40036666D01*
X9917619Y-39608095D02*
X9870000Y-39560476D01*
X9822380Y-39465238D01*
X9822380Y-39227142D01*
X9870000Y-39131904D01*
X9917619Y-39084285D01*
X10012857Y-39036666D01*
X10108095Y-39036666D01*
X10250952Y-39084285D01*
X10822380Y-39655714D01*
X10822380Y-39036666D01*
X9917619Y-38655714D02*
X9870000Y-38608095D01*
X9822380Y-38512857D01*
X9822380Y-38274761D01*
X9870000Y-38179523D01*
X9917619Y-38131904D01*
X10012857Y-38084285D01*
X10108095Y-38084285D01*
X10250952Y-38131904D01*
X10822380Y-38703333D01*
X10822380Y-38084285D01*
X11172380Y-6318095D02*
X10172380Y-6318095D01*
X10648571Y-6318095D02*
X10648571Y-5746666D01*
X11172380Y-5746666D02*
X10172380Y-5746666D01*
X10267619Y-5318095D02*
X10220000Y-5270476D01*
X10172380Y-5175238D01*
X10172380Y-4937142D01*
X10220000Y-4841904D01*
X10267619Y-4794285D01*
X10362857Y-4746666D01*
X10458095Y-4746666D01*
X10600952Y-4794285D01*
X11172380Y-5365714D01*
X11172380Y-4746666D01*
X10172380Y-3841904D02*
X10172380Y-4318095D01*
X10648571Y-4365714D01*
X10600952Y-4318095D01*
X10553333Y-4222857D01*
X10553333Y-3984761D01*
X10600952Y-3889523D01*
X10648571Y-3841904D01*
X10743809Y-3794285D01*
X10981904Y-3794285D01*
X11077142Y-3841904D01*
X11124761Y-3889523D01*
X11172380Y-3984761D01*
X11172380Y-4222857D01*
X11124761Y-4318095D01*
X11077142Y-4365714D01*
X11172380Y-15208095D02*
X10172380Y-15208095D01*
X10648571Y-15208095D02*
X10648571Y-14636666D01*
X11172380Y-14636666D02*
X10172380Y-14636666D01*
X10267619Y-14208095D02*
X10220000Y-14160476D01*
X10172380Y-14065238D01*
X10172380Y-13827142D01*
X10220000Y-13731904D01*
X10267619Y-13684285D01*
X10362857Y-13636666D01*
X10458095Y-13636666D01*
X10600952Y-13684285D01*
X11172380Y-14255714D01*
X11172380Y-13636666D01*
X10172380Y-12779523D02*
X10172380Y-12970000D01*
X10220000Y-13065238D01*
X10267619Y-13112857D01*
X10410476Y-13208095D01*
X10600952Y-13255714D01*
X10981904Y-13255714D01*
X11077142Y-13208095D01*
X11124761Y-13160476D01*
X11172380Y-13065238D01*
X11172380Y-12874761D01*
X11124761Y-12779523D01*
X11077142Y-12731904D01*
X10981904Y-12684285D01*
X10743809Y-12684285D01*
X10648571Y-12731904D01*
X10600952Y-12779523D01*
X10553333Y-12874761D01*
X10553333Y-13065238D01*
X10600952Y-13160476D01*
X10648571Y-13208095D01*
X10743809Y-13255714D01*
X17522380Y-6318095D02*
X16522380Y-6318095D01*
X16998571Y-6318095D02*
X16998571Y-5746666D01*
X17522380Y-5746666D02*
X16522380Y-5746666D01*
X16617619Y-5318095D02*
X16570000Y-5270476D01*
X16522380Y-5175238D01*
X16522380Y-4937142D01*
X16570000Y-4841904D01*
X16617619Y-4794285D01*
X16712857Y-4746666D01*
X16808095Y-4746666D01*
X16950952Y-4794285D01*
X17522380Y-5365714D01*
X17522380Y-4746666D01*
X16522380Y-4413333D02*
X16522380Y-3746666D01*
X17522380Y-4175238D01*
X17522380Y-15208095D02*
X16522380Y-15208095D01*
X16998571Y-15208095D02*
X16998571Y-14636666D01*
X17522380Y-14636666D02*
X16522380Y-14636666D01*
X16617619Y-14208095D02*
X16570000Y-14160476D01*
X16522380Y-14065238D01*
X16522380Y-13827142D01*
X16570000Y-13731904D01*
X16617619Y-13684285D01*
X16712857Y-13636666D01*
X16808095Y-13636666D01*
X16950952Y-13684285D01*
X17522380Y-14255714D01*
X17522380Y-13636666D01*
X16950952Y-13065238D02*
X16903333Y-13160476D01*
X16855714Y-13208095D01*
X16760476Y-13255714D01*
X16712857Y-13255714D01*
X16617619Y-13208095D01*
X16570000Y-13160476D01*
X16522380Y-13065238D01*
X16522380Y-12874761D01*
X16570000Y-12779523D01*
X16617619Y-12731904D01*
X16712857Y-12684285D01*
X16760476Y-12684285D01*
X16855714Y-12731904D01*
X16903333Y-12779523D01*
X16950952Y-12874761D01*
X16950952Y-13065238D01*
X16998571Y-13160476D01*
X17046190Y-13208095D01*
X17141428Y-13255714D01*
X17331904Y-13255714D01*
X17427142Y-13208095D01*
X17474761Y-13160476D01*
X17522380Y-13065238D01*
X17522380Y-12874761D01*
X17474761Y-12779523D01*
X17427142Y-12731904D01*
X17331904Y-12684285D01*
X17141428Y-12684285D01*
X17046190Y-12731904D01*
X16998571Y-12779523D01*
X16950952Y-12874761D01*
X24792380Y-6318095D02*
X23792380Y-6318095D01*
X24268571Y-6318095D02*
X24268571Y-5746666D01*
X24792380Y-5746666D02*
X23792380Y-5746666D01*
X23792380Y-5365714D02*
X23792380Y-4746666D01*
X24173333Y-5080000D01*
X24173333Y-4937142D01*
X24220952Y-4841904D01*
X24268571Y-4794285D01*
X24363809Y-4746666D01*
X24601904Y-4746666D01*
X24697142Y-4794285D01*
X24744761Y-4841904D01*
X24792380Y-4937142D01*
X24792380Y-5222857D01*
X24744761Y-5318095D01*
X24697142Y-5365714D01*
X24792380Y-3794285D02*
X24792380Y-4365714D01*
X24792380Y-4080000D02*
X23792380Y-4080000D01*
X23935238Y-4175238D01*
X24030476Y-4270476D01*
X24078095Y-4365714D01*
X22764761Y-19137619D02*
X22669523Y-19090000D01*
X22574285Y-18994761D01*
X22431428Y-18851904D01*
X22336190Y-18804285D01*
X22240952Y-18804285D01*
X22288571Y-19042380D02*
X22193333Y-18994761D01*
X22098095Y-18899523D01*
X22050476Y-18709047D01*
X22050476Y-18375714D01*
X22098095Y-18185238D01*
X22193333Y-18090000D01*
X22288571Y-18042380D01*
X22479047Y-18042380D01*
X22574285Y-18090000D01*
X22669523Y-18185238D01*
X22717142Y-18375714D01*
X22717142Y-18709047D01*
X22669523Y-18899523D01*
X22574285Y-18994761D01*
X22479047Y-19042380D01*
X22288571Y-19042380D01*
X23098095Y-18137619D02*
X23145714Y-18090000D01*
X23240952Y-18042380D01*
X23479047Y-18042380D01*
X23574285Y-18090000D01*
X23621904Y-18137619D01*
X23669523Y-18232857D01*
X23669523Y-18328095D01*
X23621904Y-18470952D01*
X23050476Y-19042380D01*
X23669523Y-19042380D01*
X10064761Y-19137619D02*
X9969523Y-19090000D01*
X9874285Y-18994761D01*
X9731428Y-18851904D01*
X9636190Y-18804285D01*
X9540952Y-18804285D01*
X9588571Y-19042380D02*
X9493333Y-18994761D01*
X9398095Y-18899523D01*
X9350476Y-18709047D01*
X9350476Y-18375714D01*
X9398095Y-18185238D01*
X9493333Y-18090000D01*
X9588571Y-18042380D01*
X9779047Y-18042380D01*
X9874285Y-18090000D01*
X9969523Y-18185238D01*
X10017142Y-18375714D01*
X10017142Y-18709047D01*
X9969523Y-18899523D01*
X9874285Y-18994761D01*
X9779047Y-19042380D01*
X9588571Y-19042380D01*
X10350476Y-18042380D02*
X10969523Y-18042380D01*
X10636190Y-18423333D01*
X10779047Y-18423333D01*
X10874285Y-18470952D01*
X10921904Y-18518571D01*
X10969523Y-18613809D01*
X10969523Y-18851904D01*
X10921904Y-18947142D01*
X10874285Y-18994761D01*
X10779047Y-19042380D01*
X10493333Y-19042380D01*
X10398095Y-18994761D01*
X10350476Y-18947142D01*
X22693333Y-52342380D02*
X22360000Y-51866190D01*
X22121904Y-52342380D02*
X22121904Y-51342380D01*
X22502857Y-51342380D01*
X22598095Y-51390000D01*
X22645714Y-51437619D01*
X22693333Y-51532857D01*
X22693333Y-51675714D01*
X22645714Y-51770952D01*
X22598095Y-51818571D01*
X22502857Y-51866190D01*
X22121904Y-51866190D01*
X23550476Y-51342380D02*
X23360000Y-51342380D01*
X23264761Y-51390000D01*
X23217142Y-51437619D01*
X23121904Y-51580476D01*
X23074285Y-51770952D01*
X23074285Y-52151904D01*
X23121904Y-52247142D01*
X23169523Y-52294761D01*
X23264761Y-52342380D01*
X23455238Y-52342380D01*
X23550476Y-52294761D01*
X23598095Y-52247142D01*
X23645714Y-52151904D01*
X23645714Y-51913809D01*
X23598095Y-51818571D01*
X23550476Y-51770952D01*
X23455238Y-51723333D01*
X23264761Y-51723333D01*
X23169523Y-51770952D01*
X23121904Y-51818571D01*
X23074285Y-51913809D01*
X9993333Y-52342380D02*
X9660000Y-51866190D01*
X9421904Y-52342380D02*
X9421904Y-51342380D01*
X9802857Y-51342380D01*
X9898095Y-51390000D01*
X9945714Y-51437619D01*
X9993333Y-51532857D01*
X9993333Y-51675714D01*
X9945714Y-51770952D01*
X9898095Y-51818571D01*
X9802857Y-51866190D01*
X9421904Y-51866190D01*
X10326666Y-51342380D02*
X10993333Y-51342380D01*
X10564761Y-52342380D01*
X23492380Y-33186666D02*
X23016190Y-33520000D01*
X23492380Y-33758095D02*
X22492380Y-33758095D01*
X22492380Y-33377142D01*
X22540000Y-33281904D01*
X22587619Y-33234285D01*
X22682857Y-33186666D01*
X22825714Y-33186666D01*
X22920952Y-33234285D01*
X22968571Y-33281904D01*
X23016190Y-33377142D01*
X23016190Y-33758095D01*
X22920952Y-32615238D02*
X22873333Y-32710476D01*
X22825714Y-32758095D01*
X22730476Y-32805714D01*
X22682857Y-32805714D01*
X22587619Y-32758095D01*
X22540000Y-32710476D01*
X22492380Y-32615238D01*
X22492380Y-32424761D01*
X22540000Y-32329523D01*
X22587619Y-32281904D01*
X22682857Y-32234285D01*
X22730476Y-32234285D01*
X22825714Y-32281904D01*
X22873333Y-32329523D01*
X22920952Y-32424761D01*
X22920952Y-32615238D01*
X22968571Y-32710476D01*
X23016190Y-32758095D01*
X23111428Y-32805714D01*
X23301904Y-32805714D01*
X23397142Y-32758095D01*
X23444761Y-32710476D01*
X23492380Y-32615238D01*
X23492380Y-32424761D01*
X23444761Y-32329523D01*
X23397142Y-32281904D01*
X23301904Y-32234285D01*
X23111428Y-32234285D01*
X23016190Y-32281904D01*
X22968571Y-32329523D01*
X22920952Y-32424761D01*
X28572380Y-33186666D02*
X28096190Y-33520000D01*
X28572380Y-33758095D02*
X27572380Y-33758095D01*
X27572380Y-33377142D01*
X27620000Y-33281904D01*
X27667619Y-33234285D01*
X27762857Y-33186666D01*
X27905714Y-33186666D01*
X28000952Y-33234285D01*
X28048571Y-33281904D01*
X28096190Y-33377142D01*
X28096190Y-33758095D01*
X28572380Y-32710476D02*
X28572380Y-32520000D01*
X28524761Y-32424761D01*
X28477142Y-32377142D01*
X28334285Y-32281904D01*
X28143809Y-32234285D01*
X27762857Y-32234285D01*
X27667619Y-32281904D01*
X27620000Y-32329523D01*
X27572380Y-32424761D01*
X27572380Y-32615238D01*
X27620000Y-32710476D01*
X27667619Y-32758095D01*
X27762857Y-32805714D01*
X28000952Y-32805714D01*
X28096190Y-32758095D01*
X28143809Y-32710476D01*
X28191428Y-32615238D01*
X28191428Y-32424761D01*
X28143809Y-32329523D01*
X28096190Y-32281904D01*
X28000952Y-32234285D01*
X10792380Y-33662857D02*
X10316190Y-33996190D01*
X10792380Y-34234285D02*
X9792380Y-34234285D01*
X9792380Y-33853333D01*
X9840000Y-33758095D01*
X9887619Y-33710476D01*
X9982857Y-33662857D01*
X10125714Y-33662857D01*
X10220952Y-33710476D01*
X10268571Y-33758095D01*
X10316190Y-33853333D01*
X10316190Y-34234285D01*
X10792380Y-32710476D02*
X10792380Y-33281904D01*
X10792380Y-32996190D02*
X9792380Y-32996190D01*
X9935238Y-33091428D01*
X10030476Y-33186666D01*
X10078095Y-33281904D01*
X9792380Y-32091428D02*
X9792380Y-31996190D01*
X9840000Y-31900952D01*
X9887619Y-31853333D01*
X9982857Y-31805714D01*
X10173333Y-31758095D01*
X10411428Y-31758095D01*
X10601904Y-31805714D01*
X10697142Y-31853333D01*
X10744761Y-31900952D01*
X10792380Y-31996190D01*
X10792380Y-32091428D01*
X10744761Y-32186666D01*
X10697142Y-32234285D01*
X10601904Y-32281904D01*
X10411428Y-32329523D01*
X10173333Y-32329523D01*
X9982857Y-32281904D01*
X9887619Y-32234285D01*
X9840000Y-32186666D01*
X9792380Y-32091428D01*
X15872380Y-33662857D02*
X15396190Y-33996190D01*
X15872380Y-34234285D02*
X14872380Y-34234285D01*
X14872380Y-33853333D01*
X14920000Y-33758095D01*
X14967619Y-33710476D01*
X15062857Y-33662857D01*
X15205714Y-33662857D01*
X15300952Y-33710476D01*
X15348571Y-33758095D01*
X15396190Y-33853333D01*
X15396190Y-34234285D01*
X15872380Y-32710476D02*
X15872380Y-33281904D01*
X15872380Y-32996190D02*
X14872380Y-32996190D01*
X15015238Y-33091428D01*
X15110476Y-33186666D01*
X15158095Y-33281904D01*
X15872380Y-31758095D02*
X15872380Y-32329523D01*
X15872380Y-32043809D02*
X14872380Y-32043809D01*
X15015238Y-32139047D01*
X15110476Y-32234285D01*
X15158095Y-32329523D01*
X17442380Y-47751904D02*
X18251904Y-47751904D01*
X18347142Y-47704285D01*
X18394761Y-47656666D01*
X18442380Y-47561428D01*
X18442380Y-47370952D01*
X18394761Y-47275714D01*
X18347142Y-47228095D01*
X18251904Y-47180476D01*
X17442380Y-47180476D01*
X18442380Y-46180476D02*
X18442380Y-46751904D01*
X18442380Y-46466190D02*
X17442380Y-46466190D01*
X17585238Y-46561428D01*
X17680476Y-46656666D01*
X17728095Y-46751904D01*
X4742380Y-47751904D02*
X5551904Y-47751904D01*
X5647142Y-47704285D01*
X5694761Y-47656666D01*
X5742380Y-47561428D01*
X5742380Y-47370952D01*
X5694761Y-47275714D01*
X5647142Y-47228095D01*
X5551904Y-47180476D01*
X4742380Y-47180476D01*
X4837619Y-46751904D02*
X4790000Y-46704285D01*
X4742380Y-46609047D01*
X4742380Y-46370952D01*
X4790000Y-46275714D01*
X4837619Y-46228095D01*
X4932857Y-46180476D01*
X5028095Y-46180476D01*
X5170952Y-46228095D01*
X5742380Y-46799523D01*
X5742380Y-46180476D01*
X23522380Y-27908095D02*
X22522380Y-27908095D01*
X22998571Y-27908095D02*
X22998571Y-27336666D01*
X23522380Y-27336666D02*
X22522380Y-27336666D01*
X22617619Y-26908095D02*
X22570000Y-26860476D01*
X22522380Y-26765238D01*
X22522380Y-26527142D01*
X22570000Y-26431904D01*
X22617619Y-26384285D01*
X22712857Y-26336666D01*
X22808095Y-26336666D01*
X22950952Y-26384285D01*
X23522380Y-26955714D01*
X23522380Y-26336666D01*
X22522380Y-26003333D02*
X22522380Y-25384285D01*
X22903333Y-25717619D01*
X22903333Y-25574761D01*
X22950952Y-25479523D01*
X22998571Y-25431904D01*
X23093809Y-25384285D01*
X23331904Y-25384285D01*
X23427142Y-25431904D01*
X23474761Y-25479523D01*
X23522380Y-25574761D01*
X23522380Y-25860476D01*
X23474761Y-25955714D01*
X23427142Y-26003333D01*
X10822380Y-27908095D02*
X9822380Y-27908095D01*
X10298571Y-27908095D02*
X10298571Y-27336666D01*
X10822380Y-27336666D02*
X9822380Y-27336666D01*
X9917619Y-26908095D02*
X9870000Y-26860476D01*
X9822380Y-26765238D01*
X9822380Y-26527142D01*
X9870000Y-26431904D01*
X9917619Y-26384285D01*
X10012857Y-26336666D01*
X10108095Y-26336666D01*
X10250952Y-26384285D01*
X10822380Y-26955714D01*
X10822380Y-26336666D01*
X10155714Y-25479523D02*
X10822380Y-25479523D01*
X9774761Y-25717619D02*
X10489047Y-25955714D01*
X10489047Y-25336666D01*
X4822380Y-6318095D02*
X3822380Y-6318095D01*
X4298571Y-6318095D02*
X4298571Y-5746666D01*
X4822380Y-5746666D02*
X3822380Y-5746666D01*
X3917619Y-5318095D02*
X3870000Y-5270476D01*
X3822380Y-5175238D01*
X3822380Y-4937142D01*
X3870000Y-4841904D01*
X3917619Y-4794285D01*
X4012857Y-4746666D01*
X4108095Y-4746666D01*
X4250952Y-4794285D01*
X4822380Y-5365714D01*
X4822380Y-4746666D01*
X4822380Y-4270476D02*
X4822380Y-4080000D01*
X4774761Y-3984761D01*
X4727142Y-3937142D01*
X4584285Y-3841904D01*
X4393809Y-3794285D01*
X4012857Y-3794285D01*
X3917619Y-3841904D01*
X3870000Y-3889523D01*
X3822380Y-3984761D01*
X3822380Y-4175238D01*
X3870000Y-4270476D01*
X3917619Y-4318095D01*
X4012857Y-4365714D01*
X4250952Y-4365714D01*
X4346190Y-4318095D01*
X4393809Y-4270476D01*
X4441428Y-4175238D01*
X4441428Y-3984761D01*
X4393809Y-3889523D01*
X4346190Y-3841904D01*
X4250952Y-3794285D01*
X4822380Y-15208095D02*
X3822380Y-15208095D01*
X4298571Y-15208095D02*
X4298571Y-14636666D01*
X4822380Y-14636666D02*
X3822380Y-14636666D01*
X3822380Y-14255714D02*
X3822380Y-13636666D01*
X4203333Y-13970000D01*
X4203333Y-13827142D01*
X4250952Y-13731904D01*
X4298571Y-13684285D01*
X4393809Y-13636666D01*
X4631904Y-13636666D01*
X4727142Y-13684285D01*
X4774761Y-13731904D01*
X4822380Y-13827142D01*
X4822380Y-14112857D01*
X4774761Y-14208095D01*
X4727142Y-14255714D01*
X3822380Y-13017619D02*
X3822380Y-12922380D01*
X3870000Y-12827142D01*
X3917619Y-12779523D01*
X4012857Y-12731904D01*
X4203333Y-12684285D01*
X4441428Y-12684285D01*
X4631904Y-12731904D01*
X4727142Y-12779523D01*
X4774761Y-12827142D01*
X4822380Y-12922380D01*
X4822380Y-13017619D01*
X4774761Y-13112857D01*
X4727142Y-13160476D01*
X4631904Y-13208095D01*
X4441428Y-13255714D01*
X4203333Y-13255714D01*
X4012857Y-13208095D01*
X3917619Y-13160476D01*
X3870000Y-13112857D01*
X3822380Y-13017619D01*
X63333333Y-56512380D02*
X63000000Y-56036190D01*
X62761904Y-56512380D02*
X62761904Y-55512380D01*
X63142857Y-55512380D01*
X63238095Y-55560000D01*
X63285714Y-55607619D01*
X63333333Y-55702857D01*
X63333333Y-55845714D01*
X63285714Y-55940952D01*
X63238095Y-55988571D01*
X63142857Y-56036190D01*
X62761904Y-56036190D01*
X63714285Y-55607619D02*
X63761904Y-55560000D01*
X63857142Y-55512380D01*
X64095238Y-55512380D01*
X64190476Y-55560000D01*
X64238095Y-55607619D01*
X64285714Y-55702857D01*
X64285714Y-55798095D01*
X64238095Y-55940952D01*
X63666666Y-56512380D01*
X64285714Y-56512380D01*
X46232380Y-5413333D02*
X46946666Y-5413333D01*
X47089523Y-5460952D01*
X47184761Y-5556190D01*
X47232380Y-5699047D01*
X47232380Y-5794285D01*
X47232380Y-4413333D02*
X47232380Y-4984761D01*
X47232380Y-4699047D02*
X46232380Y-4699047D01*
X46375238Y-4794285D01*
X46470476Y-4889523D01*
X46518095Y-4984761D01*
X64801904Y-19477380D02*
X64801904Y-18477380D01*
X64801904Y-18953571D02*
X65373333Y-18953571D01*
X65373333Y-19477380D02*
X65373333Y-18477380D01*
X65754285Y-18477380D02*
X66373333Y-18477380D01*
X66040000Y-18858333D01*
X66182857Y-18858333D01*
X66278095Y-18905952D01*
X66325714Y-18953571D01*
X66373333Y-19048809D01*
X66373333Y-19286904D01*
X66325714Y-19382142D01*
X66278095Y-19429761D01*
X66182857Y-19477380D01*
X65897142Y-19477380D01*
X65801904Y-19429761D01*
X65754285Y-19382142D01*
X67278095Y-18477380D02*
X66801904Y-18477380D01*
X66754285Y-18953571D01*
X66801904Y-18905952D01*
X66897142Y-18858333D01*
X67135238Y-18858333D01*
X67230476Y-18905952D01*
X67278095Y-18953571D01*
X67325714Y-19048809D01*
X67325714Y-19286904D01*
X67278095Y-19382142D01*
X67230476Y-19429761D01*
X67135238Y-19477380D01*
X66897142Y-19477380D01*
X66801904Y-19429761D01*
X66754285Y-19382142D01*
M02*
