G04 #@! TF.GenerationSoftware,KiCad,Pcbnew,(5.1.5)-3*
G04 #@! TF.CreationDate,2020-04-21T04:00:00+09:00*
G04 #@! TF.ProjectId,qqq,7171712e-6b69-4636-9164-5f7063625858,rev?*
G04 #@! TF.SameCoordinates,Original*
G04 #@! TF.FileFunction,Soldermask,Top*
G04 #@! TF.FilePolarity,Negative*
%FSLAX46Y46*%
G04 Gerber Fmt 4.6, Leading zero omitted, Abs format (unit mm)*
G04 Created by KiCad (PCBNEW (5.1.5)-3) date 2020-04-21 04:00:00*
%MOMM*%
%LPD*%
G04 APERTURE LIST*
%ADD10C,0.100000*%
G04 APERTURE END LIST*
D10*
G36*
X25648228Y-53791703D02*
G01*
X25803100Y-53855853D01*
X25942481Y-53948985D01*
X26061015Y-54067519D01*
X26154147Y-54206900D01*
X26218297Y-54361772D01*
X26251000Y-54526184D01*
X26251000Y-54693816D01*
X26218297Y-54858228D01*
X26154147Y-55013100D01*
X26061015Y-55152481D01*
X25942481Y-55271015D01*
X25803100Y-55364147D01*
X25648228Y-55428297D01*
X25483816Y-55461000D01*
X25316184Y-55461000D01*
X25151772Y-55428297D01*
X24996900Y-55364147D01*
X24857519Y-55271015D01*
X24738985Y-55152481D01*
X24645853Y-55013100D01*
X24581703Y-54858228D01*
X24549000Y-54693816D01*
X24549000Y-54526184D01*
X24581703Y-54361772D01*
X24645853Y-54206900D01*
X24738985Y-54067519D01*
X24857519Y-53948985D01*
X24996900Y-53855853D01*
X25151772Y-53791703D01*
X25316184Y-53759000D01*
X25483816Y-53759000D01*
X25648228Y-53791703D01*
G37*
G36*
X20568228Y-53791703D02*
G01*
X20723100Y-53855853D01*
X20862481Y-53948985D01*
X20981015Y-54067519D01*
X21074147Y-54206900D01*
X21138297Y-54361772D01*
X21171000Y-54526184D01*
X21171000Y-54693816D01*
X21138297Y-54858228D01*
X21074147Y-55013100D01*
X20981015Y-55152481D01*
X20862481Y-55271015D01*
X20723100Y-55364147D01*
X20568228Y-55428297D01*
X20403816Y-55461000D01*
X20236184Y-55461000D01*
X20071772Y-55428297D01*
X19916900Y-55364147D01*
X19777519Y-55271015D01*
X19658985Y-55152481D01*
X19565853Y-55013100D01*
X19501703Y-54858228D01*
X19469000Y-54693816D01*
X19469000Y-54526184D01*
X19501703Y-54361772D01*
X19565853Y-54206900D01*
X19658985Y-54067519D01*
X19777519Y-53948985D01*
X19916900Y-53855853D01*
X20071772Y-53791703D01*
X20236184Y-53759000D01*
X20403816Y-53759000D01*
X20568228Y-53791703D01*
G37*
G36*
X7868228Y-53791703D02*
G01*
X8023100Y-53855853D01*
X8162481Y-53948985D01*
X8281015Y-54067519D01*
X8374147Y-54206900D01*
X8438297Y-54361772D01*
X8471000Y-54526184D01*
X8471000Y-54693816D01*
X8438297Y-54858228D01*
X8374147Y-55013100D01*
X8281015Y-55152481D01*
X8162481Y-55271015D01*
X8023100Y-55364147D01*
X7868228Y-55428297D01*
X7703816Y-55461000D01*
X7536184Y-55461000D01*
X7371772Y-55428297D01*
X7216900Y-55364147D01*
X7077519Y-55271015D01*
X6958985Y-55152481D01*
X6865853Y-55013100D01*
X6801703Y-54858228D01*
X6769000Y-54693816D01*
X6769000Y-54526184D01*
X6801703Y-54361772D01*
X6865853Y-54206900D01*
X6958985Y-54067519D01*
X7077519Y-53948985D01*
X7216900Y-53855853D01*
X7371772Y-53791703D01*
X7536184Y-53759000D01*
X7703816Y-53759000D01*
X7868228Y-53791703D01*
G37*
G36*
X12948228Y-53791703D02*
G01*
X13103100Y-53855853D01*
X13242481Y-53948985D01*
X13361015Y-54067519D01*
X13454147Y-54206900D01*
X13518297Y-54361772D01*
X13551000Y-54526184D01*
X13551000Y-54693816D01*
X13518297Y-54858228D01*
X13454147Y-55013100D01*
X13361015Y-55152481D01*
X13242481Y-55271015D01*
X13103100Y-55364147D01*
X12948228Y-55428297D01*
X12783816Y-55461000D01*
X12616184Y-55461000D01*
X12451772Y-55428297D01*
X12296900Y-55364147D01*
X12157519Y-55271015D01*
X12038985Y-55152481D01*
X11945853Y-55013100D01*
X11881703Y-54858228D01*
X11849000Y-54693816D01*
X11849000Y-54526184D01*
X11881703Y-54361772D01*
X11945853Y-54206900D01*
X12038985Y-54067519D01*
X12157519Y-53948985D01*
X12296900Y-53855853D01*
X12451772Y-53791703D01*
X12616184Y-53759000D01*
X12783816Y-53759000D01*
X12948228Y-53791703D01*
G37*
G36*
X56781000Y-54241000D02*
G01*
X54979000Y-54241000D01*
X54979000Y-52439000D01*
X56781000Y-52439000D01*
X56781000Y-54241000D01*
G37*
G36*
X60591000Y-54241000D02*
G01*
X58789000Y-54241000D01*
X58789000Y-52439000D01*
X60591000Y-52439000D01*
X60591000Y-54241000D01*
G37*
G36*
X62478228Y-52521703D02*
G01*
X62633100Y-52585853D01*
X62772481Y-52678985D01*
X62891015Y-52797519D01*
X62984147Y-52936900D01*
X63048297Y-53091772D01*
X63081000Y-53256184D01*
X63081000Y-53423816D01*
X63048297Y-53588228D01*
X62984147Y-53743100D01*
X62891015Y-53882481D01*
X62772481Y-54001015D01*
X62633100Y-54094147D01*
X62478228Y-54158297D01*
X62313816Y-54191000D01*
X62146184Y-54191000D01*
X61981772Y-54158297D01*
X61826900Y-54094147D01*
X61687519Y-54001015D01*
X61568985Y-53882481D01*
X61475853Y-53743100D01*
X61411703Y-53588228D01*
X61379000Y-53423816D01*
X61379000Y-53256184D01*
X61411703Y-53091772D01*
X61475853Y-52936900D01*
X61568985Y-52797519D01*
X61687519Y-52678985D01*
X61826900Y-52585853D01*
X61981772Y-52521703D01*
X62146184Y-52489000D01*
X62313816Y-52489000D01*
X62478228Y-52521703D01*
G37*
G36*
X65018228Y-52521703D02*
G01*
X65173100Y-52585853D01*
X65312481Y-52678985D01*
X65431015Y-52797519D01*
X65524147Y-52936900D01*
X65588297Y-53091772D01*
X65621000Y-53256184D01*
X65621000Y-53423816D01*
X65588297Y-53588228D01*
X65524147Y-53743100D01*
X65431015Y-53882481D01*
X65312481Y-54001015D01*
X65173100Y-54094147D01*
X65018228Y-54158297D01*
X64853816Y-54191000D01*
X64686184Y-54191000D01*
X64521772Y-54158297D01*
X64366900Y-54094147D01*
X64227519Y-54001015D01*
X64108985Y-53882481D01*
X64015853Y-53743100D01*
X63951703Y-53588228D01*
X63919000Y-53423816D01*
X63919000Y-53256184D01*
X63951703Y-53091772D01*
X64015853Y-52936900D01*
X64108985Y-52797519D01*
X64227519Y-52678985D01*
X64366900Y-52585853D01*
X64521772Y-52521703D01*
X64686184Y-52489000D01*
X64853816Y-52489000D01*
X65018228Y-52521703D01*
G37*
G36*
X49778228Y-52521703D02*
G01*
X49933100Y-52585853D01*
X50072481Y-52678985D01*
X50191015Y-52797519D01*
X50284147Y-52936900D01*
X50348297Y-53091772D01*
X50381000Y-53256184D01*
X50381000Y-53423816D01*
X50348297Y-53588228D01*
X50284147Y-53743100D01*
X50191015Y-53882481D01*
X50072481Y-54001015D01*
X49933100Y-54094147D01*
X49778228Y-54158297D01*
X49613816Y-54191000D01*
X49446184Y-54191000D01*
X49281772Y-54158297D01*
X49126900Y-54094147D01*
X48987519Y-54001015D01*
X48868985Y-53882481D01*
X48775853Y-53743100D01*
X48711703Y-53588228D01*
X48679000Y-53423816D01*
X48679000Y-53256184D01*
X48711703Y-53091772D01*
X48775853Y-52936900D01*
X48868985Y-52797519D01*
X48987519Y-52678985D01*
X49126900Y-52585853D01*
X49281772Y-52521703D01*
X49446184Y-52489000D01*
X49613816Y-52489000D01*
X49778228Y-52521703D01*
G37*
G36*
X34538228Y-52521703D02*
G01*
X34693100Y-52585853D01*
X34832481Y-52678985D01*
X34951015Y-52797519D01*
X35044147Y-52936900D01*
X35108297Y-53091772D01*
X35141000Y-53256184D01*
X35141000Y-53423816D01*
X35108297Y-53588228D01*
X35044147Y-53743100D01*
X34951015Y-53882481D01*
X34832481Y-54001015D01*
X34693100Y-54094147D01*
X34538228Y-54158297D01*
X34373816Y-54191000D01*
X34206184Y-54191000D01*
X34041772Y-54158297D01*
X33886900Y-54094147D01*
X33747519Y-54001015D01*
X33628985Y-53882481D01*
X33535853Y-53743100D01*
X33471703Y-53588228D01*
X33439000Y-53423816D01*
X33439000Y-53256184D01*
X33471703Y-53091772D01*
X33535853Y-52936900D01*
X33628985Y-52797519D01*
X33747519Y-52678985D01*
X33886900Y-52585853D01*
X34041772Y-52521703D01*
X34206184Y-52489000D01*
X34373816Y-52489000D01*
X34538228Y-52521703D01*
G37*
G36*
X49778228Y-49981703D02*
G01*
X49933100Y-50045853D01*
X50072481Y-50138985D01*
X50191015Y-50257519D01*
X50284147Y-50396900D01*
X50348297Y-50551772D01*
X50381000Y-50716184D01*
X50381000Y-50883816D01*
X50348297Y-51048228D01*
X50284147Y-51203100D01*
X50191015Y-51342481D01*
X50072481Y-51461015D01*
X49933100Y-51554147D01*
X49778228Y-51618297D01*
X49613816Y-51651000D01*
X49446184Y-51651000D01*
X49281772Y-51618297D01*
X49126900Y-51554147D01*
X48987519Y-51461015D01*
X48868985Y-51342481D01*
X48775853Y-51203100D01*
X48711703Y-51048228D01*
X48679000Y-50883816D01*
X48679000Y-50716184D01*
X48711703Y-50551772D01*
X48775853Y-50396900D01*
X48868985Y-50257519D01*
X48987519Y-50138985D01*
X49126900Y-50045853D01*
X49281772Y-49981703D01*
X49446184Y-49949000D01*
X49613816Y-49949000D01*
X49778228Y-49981703D01*
G37*
G36*
X34538228Y-49981703D02*
G01*
X34693100Y-50045853D01*
X34832481Y-50138985D01*
X34951015Y-50257519D01*
X35044147Y-50396900D01*
X35108297Y-50551772D01*
X35141000Y-50716184D01*
X35141000Y-50883816D01*
X35108297Y-51048228D01*
X35044147Y-51203100D01*
X34951015Y-51342481D01*
X34832481Y-51461015D01*
X34693100Y-51554147D01*
X34538228Y-51618297D01*
X34373816Y-51651000D01*
X34206184Y-51651000D01*
X34041772Y-51618297D01*
X33886900Y-51554147D01*
X33747519Y-51461015D01*
X33628985Y-51342481D01*
X33535853Y-51203100D01*
X33471703Y-51048228D01*
X33439000Y-50883816D01*
X33439000Y-50716184D01*
X33471703Y-50551772D01*
X33535853Y-50396900D01*
X33628985Y-50257519D01*
X33747519Y-50138985D01*
X33886900Y-50045853D01*
X34041772Y-49981703D01*
X34206184Y-49949000D01*
X34373816Y-49949000D01*
X34538228Y-49981703D01*
G37*
G36*
X25648228Y-49981703D02*
G01*
X25803100Y-50045853D01*
X25942481Y-50138985D01*
X26061015Y-50257519D01*
X26154147Y-50396900D01*
X26218297Y-50551772D01*
X26251000Y-50716184D01*
X26251000Y-50883816D01*
X26218297Y-51048228D01*
X26154147Y-51203100D01*
X26061015Y-51342481D01*
X25942481Y-51461015D01*
X25803100Y-51554147D01*
X25648228Y-51618297D01*
X25483816Y-51651000D01*
X25316184Y-51651000D01*
X25151772Y-51618297D01*
X24996900Y-51554147D01*
X24857519Y-51461015D01*
X24738985Y-51342481D01*
X24645853Y-51203100D01*
X24581703Y-51048228D01*
X24549000Y-50883816D01*
X24549000Y-50716184D01*
X24581703Y-50551772D01*
X24645853Y-50396900D01*
X24738985Y-50257519D01*
X24857519Y-50138985D01*
X24996900Y-50045853D01*
X25151772Y-49981703D01*
X25316184Y-49949000D01*
X25483816Y-49949000D01*
X25648228Y-49981703D01*
G37*
G36*
X23108228Y-49981703D02*
G01*
X23263100Y-50045853D01*
X23402481Y-50138985D01*
X23521015Y-50257519D01*
X23614147Y-50396900D01*
X23678297Y-50551772D01*
X23711000Y-50716184D01*
X23711000Y-50883816D01*
X23678297Y-51048228D01*
X23614147Y-51203100D01*
X23521015Y-51342481D01*
X23402481Y-51461015D01*
X23263100Y-51554147D01*
X23108228Y-51618297D01*
X22943816Y-51651000D01*
X22776184Y-51651000D01*
X22611772Y-51618297D01*
X22456900Y-51554147D01*
X22317519Y-51461015D01*
X22198985Y-51342481D01*
X22105853Y-51203100D01*
X22041703Y-51048228D01*
X22009000Y-50883816D01*
X22009000Y-50716184D01*
X22041703Y-50551772D01*
X22105853Y-50396900D01*
X22198985Y-50257519D01*
X22317519Y-50138985D01*
X22456900Y-50045853D01*
X22611772Y-49981703D01*
X22776184Y-49949000D01*
X22943816Y-49949000D01*
X23108228Y-49981703D01*
G37*
G36*
X21171000Y-51651000D02*
G01*
X19469000Y-51651000D01*
X19469000Y-49949000D01*
X21171000Y-49949000D01*
X21171000Y-51651000D01*
G37*
G36*
X12948228Y-49981703D02*
G01*
X13103100Y-50045853D01*
X13242481Y-50138985D01*
X13361015Y-50257519D01*
X13454147Y-50396900D01*
X13518297Y-50551772D01*
X13551000Y-50716184D01*
X13551000Y-50883816D01*
X13518297Y-51048228D01*
X13454147Y-51203100D01*
X13361015Y-51342481D01*
X13242481Y-51461015D01*
X13103100Y-51554147D01*
X12948228Y-51618297D01*
X12783816Y-51651000D01*
X12616184Y-51651000D01*
X12451772Y-51618297D01*
X12296900Y-51554147D01*
X12157519Y-51461015D01*
X12038985Y-51342481D01*
X11945853Y-51203100D01*
X11881703Y-51048228D01*
X11849000Y-50883816D01*
X11849000Y-50716184D01*
X11881703Y-50551772D01*
X11945853Y-50396900D01*
X12038985Y-50257519D01*
X12157519Y-50138985D01*
X12296900Y-50045853D01*
X12451772Y-49981703D01*
X12616184Y-49949000D01*
X12783816Y-49949000D01*
X12948228Y-49981703D01*
G37*
G36*
X10408228Y-49981703D02*
G01*
X10563100Y-50045853D01*
X10702481Y-50138985D01*
X10821015Y-50257519D01*
X10914147Y-50396900D01*
X10978297Y-50551772D01*
X11011000Y-50716184D01*
X11011000Y-50883816D01*
X10978297Y-51048228D01*
X10914147Y-51203100D01*
X10821015Y-51342481D01*
X10702481Y-51461015D01*
X10563100Y-51554147D01*
X10408228Y-51618297D01*
X10243816Y-51651000D01*
X10076184Y-51651000D01*
X9911772Y-51618297D01*
X9756900Y-51554147D01*
X9617519Y-51461015D01*
X9498985Y-51342481D01*
X9405853Y-51203100D01*
X9341703Y-51048228D01*
X9309000Y-50883816D01*
X9309000Y-50716184D01*
X9341703Y-50551772D01*
X9405853Y-50396900D01*
X9498985Y-50257519D01*
X9617519Y-50138985D01*
X9756900Y-50045853D01*
X9911772Y-49981703D01*
X10076184Y-49949000D01*
X10243816Y-49949000D01*
X10408228Y-49981703D01*
G37*
G36*
X8471000Y-51651000D02*
G01*
X6769000Y-51651000D01*
X6769000Y-49949000D01*
X8471000Y-49949000D01*
X8471000Y-51651000D01*
G37*
G36*
X56781000Y-49796000D02*
G01*
X54979000Y-49796000D01*
X54979000Y-47994000D01*
X56781000Y-47994000D01*
X56781000Y-49796000D01*
G37*
G36*
X60591000Y-49796000D02*
G01*
X58789000Y-49796000D01*
X58789000Y-47994000D01*
X60591000Y-47994000D01*
X60591000Y-49796000D01*
G37*
G36*
X65018228Y-48076703D02*
G01*
X65173100Y-48140853D01*
X65312481Y-48233985D01*
X65431015Y-48352519D01*
X65524147Y-48491900D01*
X65588297Y-48646772D01*
X65621000Y-48811184D01*
X65621000Y-48978816D01*
X65588297Y-49143228D01*
X65524147Y-49298100D01*
X65431015Y-49437481D01*
X65312481Y-49556015D01*
X65173100Y-49649147D01*
X65018228Y-49713297D01*
X64853816Y-49746000D01*
X64686184Y-49746000D01*
X64521772Y-49713297D01*
X64366900Y-49649147D01*
X64227519Y-49556015D01*
X64108985Y-49437481D01*
X64015853Y-49298100D01*
X63951703Y-49143228D01*
X63919000Y-48978816D01*
X63919000Y-48811184D01*
X63951703Y-48646772D01*
X64015853Y-48491900D01*
X64108985Y-48352519D01*
X64227519Y-48233985D01*
X64366900Y-48140853D01*
X64521772Y-48076703D01*
X64686184Y-48044000D01*
X64853816Y-48044000D01*
X65018228Y-48076703D01*
G37*
G36*
X62478228Y-48076703D02*
G01*
X62633100Y-48140853D01*
X62772481Y-48233985D01*
X62891015Y-48352519D01*
X62984147Y-48491900D01*
X63048297Y-48646772D01*
X63081000Y-48811184D01*
X63081000Y-48978816D01*
X63048297Y-49143228D01*
X62984147Y-49298100D01*
X62891015Y-49437481D01*
X62772481Y-49556015D01*
X62633100Y-49649147D01*
X62478228Y-49713297D01*
X62313816Y-49746000D01*
X62146184Y-49746000D01*
X61981772Y-49713297D01*
X61826900Y-49649147D01*
X61687519Y-49556015D01*
X61568985Y-49437481D01*
X61475853Y-49298100D01*
X61411703Y-49143228D01*
X61379000Y-48978816D01*
X61379000Y-48811184D01*
X61411703Y-48646772D01*
X61475853Y-48491900D01*
X61568985Y-48352519D01*
X61687519Y-48233985D01*
X61826900Y-48140853D01*
X61981772Y-48076703D01*
X62146184Y-48044000D01*
X62313816Y-48044000D01*
X62478228Y-48076703D01*
G37*
G36*
X34538228Y-47441703D02*
G01*
X34693100Y-47505853D01*
X34832481Y-47598985D01*
X34951015Y-47717519D01*
X35044147Y-47856900D01*
X35108297Y-48011772D01*
X35141000Y-48176184D01*
X35141000Y-48343816D01*
X35108297Y-48508228D01*
X35044147Y-48663100D01*
X34951015Y-48802481D01*
X34832481Y-48921015D01*
X34693100Y-49014147D01*
X34538228Y-49078297D01*
X34373816Y-49111000D01*
X34206184Y-49111000D01*
X34041772Y-49078297D01*
X33886900Y-49014147D01*
X33747519Y-48921015D01*
X33628985Y-48802481D01*
X33535853Y-48663100D01*
X33471703Y-48508228D01*
X33439000Y-48343816D01*
X33439000Y-48176184D01*
X33471703Y-48011772D01*
X33535853Y-47856900D01*
X33628985Y-47717519D01*
X33747519Y-47598985D01*
X33886900Y-47505853D01*
X34041772Y-47441703D01*
X34206184Y-47409000D01*
X34373816Y-47409000D01*
X34538228Y-47441703D01*
G37*
G36*
X49778228Y-47441703D02*
G01*
X49933100Y-47505853D01*
X50072481Y-47598985D01*
X50191015Y-47717519D01*
X50284147Y-47856900D01*
X50348297Y-48011772D01*
X50381000Y-48176184D01*
X50381000Y-48343816D01*
X50348297Y-48508228D01*
X50284147Y-48663100D01*
X50191015Y-48802481D01*
X50072481Y-48921015D01*
X49933100Y-49014147D01*
X49778228Y-49078297D01*
X49613816Y-49111000D01*
X49446184Y-49111000D01*
X49281772Y-49078297D01*
X49126900Y-49014147D01*
X48987519Y-48921015D01*
X48868985Y-48802481D01*
X48775853Y-48663100D01*
X48711703Y-48508228D01*
X48679000Y-48343816D01*
X48679000Y-48176184D01*
X48711703Y-48011772D01*
X48775853Y-47856900D01*
X48868985Y-47717519D01*
X48987519Y-47598985D01*
X49126900Y-47505853D01*
X49281772Y-47441703D01*
X49446184Y-47409000D01*
X49613816Y-47409000D01*
X49778228Y-47441703D01*
G37*
G36*
X49778228Y-44901703D02*
G01*
X49933100Y-44965853D01*
X50072481Y-45058985D01*
X50191015Y-45177519D01*
X50284147Y-45316900D01*
X50348297Y-45471772D01*
X50381000Y-45636184D01*
X50381000Y-45803816D01*
X50348297Y-45968228D01*
X50284147Y-46123100D01*
X50191015Y-46262481D01*
X50072481Y-46381015D01*
X49933100Y-46474147D01*
X49778228Y-46538297D01*
X49613816Y-46571000D01*
X49446184Y-46571000D01*
X49281772Y-46538297D01*
X49126900Y-46474147D01*
X48987519Y-46381015D01*
X48868985Y-46262481D01*
X48775853Y-46123100D01*
X48711703Y-45968228D01*
X48679000Y-45803816D01*
X48679000Y-45636184D01*
X48711703Y-45471772D01*
X48775853Y-45316900D01*
X48868985Y-45177519D01*
X48987519Y-45058985D01*
X49126900Y-44965853D01*
X49281772Y-44901703D01*
X49446184Y-44869000D01*
X49613816Y-44869000D01*
X49778228Y-44901703D01*
G37*
G36*
X34538228Y-44901703D02*
G01*
X34693100Y-44965853D01*
X34832481Y-45058985D01*
X34951015Y-45177519D01*
X35044147Y-45316900D01*
X35108297Y-45471772D01*
X35141000Y-45636184D01*
X35141000Y-45803816D01*
X35108297Y-45968228D01*
X35044147Y-46123100D01*
X34951015Y-46262481D01*
X34832481Y-46381015D01*
X34693100Y-46474147D01*
X34538228Y-46538297D01*
X34373816Y-46571000D01*
X34206184Y-46571000D01*
X34041772Y-46538297D01*
X33886900Y-46474147D01*
X33747519Y-46381015D01*
X33628985Y-46262481D01*
X33535853Y-46123100D01*
X33471703Y-45968228D01*
X33439000Y-45803816D01*
X33439000Y-45636184D01*
X33471703Y-45471772D01*
X33535853Y-45316900D01*
X33628985Y-45177519D01*
X33747519Y-45058985D01*
X33886900Y-44965853D01*
X34041772Y-44901703D01*
X34206184Y-44869000D01*
X34373816Y-44869000D01*
X34538228Y-44901703D01*
G37*
G36*
X56781000Y-45351000D02*
G01*
X54979000Y-45351000D01*
X54979000Y-43549000D01*
X56781000Y-43549000D01*
X56781000Y-45351000D01*
G37*
G36*
X60591000Y-45351000D02*
G01*
X58789000Y-45351000D01*
X58789000Y-43549000D01*
X60591000Y-43549000D01*
X60591000Y-45351000D01*
G37*
G36*
X65018228Y-43631703D02*
G01*
X65173100Y-43695853D01*
X65312481Y-43788985D01*
X65431015Y-43907519D01*
X65524147Y-44046900D01*
X65588297Y-44201772D01*
X65621000Y-44366184D01*
X65621000Y-44533816D01*
X65588297Y-44698228D01*
X65524147Y-44853100D01*
X65431015Y-44992481D01*
X65312481Y-45111015D01*
X65173100Y-45204147D01*
X65018228Y-45268297D01*
X64853816Y-45301000D01*
X64686184Y-45301000D01*
X64521772Y-45268297D01*
X64366900Y-45204147D01*
X64227519Y-45111015D01*
X64108985Y-44992481D01*
X64015853Y-44853100D01*
X63951703Y-44698228D01*
X63919000Y-44533816D01*
X63919000Y-44366184D01*
X63951703Y-44201772D01*
X64015853Y-44046900D01*
X64108985Y-43907519D01*
X64227519Y-43788985D01*
X64366900Y-43695853D01*
X64521772Y-43631703D01*
X64686184Y-43599000D01*
X64853816Y-43599000D01*
X65018228Y-43631703D01*
G37*
G36*
X62478228Y-43631703D02*
G01*
X62633100Y-43695853D01*
X62772481Y-43788985D01*
X62891015Y-43907519D01*
X62984147Y-44046900D01*
X63048297Y-44201772D01*
X63081000Y-44366184D01*
X63081000Y-44533816D01*
X63048297Y-44698228D01*
X62984147Y-44853100D01*
X62891015Y-44992481D01*
X62772481Y-45111015D01*
X62633100Y-45204147D01*
X62478228Y-45268297D01*
X62313816Y-45301000D01*
X62146184Y-45301000D01*
X61981772Y-45268297D01*
X61826900Y-45204147D01*
X61687519Y-45111015D01*
X61568985Y-44992481D01*
X61475853Y-44853100D01*
X61411703Y-44698228D01*
X61379000Y-44533816D01*
X61379000Y-44366184D01*
X61411703Y-44201772D01*
X61475853Y-44046900D01*
X61568985Y-43907519D01*
X61687519Y-43788985D01*
X61826900Y-43695853D01*
X61981772Y-43631703D01*
X62146184Y-43599000D01*
X62313816Y-43599000D01*
X62478228Y-43631703D01*
G37*
G36*
X34538228Y-42361703D02*
G01*
X34693100Y-42425853D01*
X34832481Y-42518985D01*
X34951015Y-42637519D01*
X35044147Y-42776900D01*
X35108297Y-42931772D01*
X35141000Y-43096184D01*
X35141000Y-43263816D01*
X35108297Y-43428228D01*
X35044147Y-43583100D01*
X34951015Y-43722481D01*
X34832481Y-43841015D01*
X34693100Y-43934147D01*
X34538228Y-43998297D01*
X34373816Y-44031000D01*
X34206184Y-44031000D01*
X34041772Y-43998297D01*
X33886900Y-43934147D01*
X33747519Y-43841015D01*
X33628985Y-43722481D01*
X33535853Y-43583100D01*
X33471703Y-43428228D01*
X33439000Y-43263816D01*
X33439000Y-43096184D01*
X33471703Y-42931772D01*
X33535853Y-42776900D01*
X33628985Y-42637519D01*
X33747519Y-42518985D01*
X33886900Y-42425853D01*
X34041772Y-42361703D01*
X34206184Y-42329000D01*
X34373816Y-42329000D01*
X34538228Y-42361703D01*
G37*
G36*
X49778228Y-42361703D02*
G01*
X49933100Y-42425853D01*
X50072481Y-42518985D01*
X50191015Y-42637519D01*
X50284147Y-42776900D01*
X50348297Y-42931772D01*
X50381000Y-43096184D01*
X50381000Y-43263816D01*
X50348297Y-43428228D01*
X50284147Y-43583100D01*
X50191015Y-43722481D01*
X50072481Y-43841015D01*
X49933100Y-43934147D01*
X49778228Y-43998297D01*
X49613816Y-44031000D01*
X49446184Y-44031000D01*
X49281772Y-43998297D01*
X49126900Y-43934147D01*
X48987519Y-43841015D01*
X48868985Y-43722481D01*
X48775853Y-43583100D01*
X48711703Y-43428228D01*
X48679000Y-43263816D01*
X48679000Y-43096184D01*
X48711703Y-42931772D01*
X48775853Y-42776900D01*
X48868985Y-42637519D01*
X48987519Y-42518985D01*
X49126900Y-42425853D01*
X49281772Y-42361703D01*
X49446184Y-42329000D01*
X49613816Y-42329000D01*
X49778228Y-42361703D01*
G37*
G36*
X20568228Y-42361703D02*
G01*
X20723100Y-42425853D01*
X20862481Y-42518985D01*
X20981015Y-42637519D01*
X21074147Y-42776900D01*
X21138297Y-42931772D01*
X21171000Y-43096184D01*
X21171000Y-43263816D01*
X21138297Y-43428228D01*
X21074147Y-43583100D01*
X20981015Y-43722481D01*
X20862481Y-43841015D01*
X20723100Y-43934147D01*
X20568228Y-43998297D01*
X20403816Y-44031000D01*
X20236184Y-44031000D01*
X20071772Y-43998297D01*
X19916900Y-43934147D01*
X19777519Y-43841015D01*
X19658985Y-43722481D01*
X19565853Y-43583100D01*
X19501703Y-43428228D01*
X19469000Y-43263816D01*
X19469000Y-43096184D01*
X19501703Y-42931772D01*
X19565853Y-42776900D01*
X19658985Y-42637519D01*
X19777519Y-42518985D01*
X19916900Y-42425853D01*
X20071772Y-42361703D01*
X20236184Y-42329000D01*
X20403816Y-42329000D01*
X20568228Y-42361703D01*
G37*
G36*
X23108228Y-42361703D02*
G01*
X23263100Y-42425853D01*
X23402481Y-42518985D01*
X23521015Y-42637519D01*
X23614147Y-42776900D01*
X23678297Y-42931772D01*
X23711000Y-43096184D01*
X23711000Y-43263816D01*
X23678297Y-43428228D01*
X23614147Y-43583100D01*
X23521015Y-43722481D01*
X23402481Y-43841015D01*
X23263100Y-43934147D01*
X23108228Y-43998297D01*
X22943816Y-44031000D01*
X22776184Y-44031000D01*
X22611772Y-43998297D01*
X22456900Y-43934147D01*
X22317519Y-43841015D01*
X22198985Y-43722481D01*
X22105853Y-43583100D01*
X22041703Y-43428228D01*
X22009000Y-43263816D01*
X22009000Y-43096184D01*
X22041703Y-42931772D01*
X22105853Y-42776900D01*
X22198985Y-42637519D01*
X22317519Y-42518985D01*
X22456900Y-42425853D01*
X22611772Y-42361703D01*
X22776184Y-42329000D01*
X22943816Y-42329000D01*
X23108228Y-42361703D01*
G37*
G36*
X7868228Y-42361703D02*
G01*
X8023100Y-42425853D01*
X8162481Y-42518985D01*
X8281015Y-42637519D01*
X8374147Y-42776900D01*
X8438297Y-42931772D01*
X8471000Y-43096184D01*
X8471000Y-43263816D01*
X8438297Y-43428228D01*
X8374147Y-43583100D01*
X8281015Y-43722481D01*
X8162481Y-43841015D01*
X8023100Y-43934147D01*
X7868228Y-43998297D01*
X7703816Y-44031000D01*
X7536184Y-44031000D01*
X7371772Y-43998297D01*
X7216900Y-43934147D01*
X7077519Y-43841015D01*
X6958985Y-43722481D01*
X6865853Y-43583100D01*
X6801703Y-43428228D01*
X6769000Y-43263816D01*
X6769000Y-43096184D01*
X6801703Y-42931772D01*
X6865853Y-42776900D01*
X6958985Y-42637519D01*
X7077519Y-42518985D01*
X7216900Y-42425853D01*
X7371772Y-42361703D01*
X7536184Y-42329000D01*
X7703816Y-42329000D01*
X7868228Y-42361703D01*
G37*
G36*
X12948228Y-42361703D02*
G01*
X13103100Y-42425853D01*
X13242481Y-42518985D01*
X13361015Y-42637519D01*
X13454147Y-42776900D01*
X13518297Y-42931772D01*
X13551000Y-43096184D01*
X13551000Y-43263816D01*
X13518297Y-43428228D01*
X13454147Y-43583100D01*
X13361015Y-43722481D01*
X13242481Y-43841015D01*
X13103100Y-43934147D01*
X12948228Y-43998297D01*
X12783816Y-44031000D01*
X12616184Y-44031000D01*
X12451772Y-43998297D01*
X12296900Y-43934147D01*
X12157519Y-43841015D01*
X12038985Y-43722481D01*
X11945853Y-43583100D01*
X11881703Y-43428228D01*
X11849000Y-43263816D01*
X11849000Y-43096184D01*
X11881703Y-42931772D01*
X11945853Y-42776900D01*
X12038985Y-42637519D01*
X12157519Y-42518985D01*
X12296900Y-42425853D01*
X12451772Y-42361703D01*
X12616184Y-42329000D01*
X12783816Y-42329000D01*
X12948228Y-42361703D01*
G37*
G36*
X10408228Y-42361703D02*
G01*
X10563100Y-42425853D01*
X10702481Y-42518985D01*
X10821015Y-42637519D01*
X10914147Y-42776900D01*
X10978297Y-42931772D01*
X11011000Y-43096184D01*
X11011000Y-43263816D01*
X10978297Y-43428228D01*
X10914147Y-43583100D01*
X10821015Y-43722481D01*
X10702481Y-43841015D01*
X10563100Y-43934147D01*
X10408228Y-43998297D01*
X10243816Y-44031000D01*
X10076184Y-44031000D01*
X9911772Y-43998297D01*
X9756900Y-43934147D01*
X9617519Y-43841015D01*
X9498985Y-43722481D01*
X9405853Y-43583100D01*
X9341703Y-43428228D01*
X9309000Y-43263816D01*
X9309000Y-43096184D01*
X9341703Y-42931772D01*
X9405853Y-42776900D01*
X9498985Y-42637519D01*
X9617519Y-42518985D01*
X9756900Y-42425853D01*
X9911772Y-42361703D01*
X10076184Y-42329000D01*
X10243816Y-42329000D01*
X10408228Y-42361703D01*
G37*
G36*
X25648228Y-42361703D02*
G01*
X25803100Y-42425853D01*
X25942481Y-42518985D01*
X26061015Y-42637519D01*
X26154147Y-42776900D01*
X26218297Y-42931772D01*
X26251000Y-43096184D01*
X26251000Y-43263816D01*
X26218297Y-43428228D01*
X26154147Y-43583100D01*
X26061015Y-43722481D01*
X25942481Y-43841015D01*
X25803100Y-43934147D01*
X25648228Y-43998297D01*
X25483816Y-44031000D01*
X25316184Y-44031000D01*
X25151772Y-43998297D01*
X24996900Y-43934147D01*
X24857519Y-43841015D01*
X24738985Y-43722481D01*
X24645853Y-43583100D01*
X24581703Y-43428228D01*
X24549000Y-43263816D01*
X24549000Y-43096184D01*
X24581703Y-42931772D01*
X24645853Y-42776900D01*
X24738985Y-42637519D01*
X24857519Y-42518985D01*
X24996900Y-42425853D01*
X25151772Y-42361703D01*
X25316184Y-42329000D01*
X25483816Y-42329000D01*
X25648228Y-42361703D01*
G37*
G36*
X34538228Y-39821703D02*
G01*
X34693100Y-39885853D01*
X34832481Y-39978985D01*
X34951015Y-40097519D01*
X35044147Y-40236900D01*
X35108297Y-40391772D01*
X35141000Y-40556184D01*
X35141000Y-40723816D01*
X35108297Y-40888228D01*
X35044147Y-41043100D01*
X34951015Y-41182481D01*
X34832481Y-41301015D01*
X34693100Y-41394147D01*
X34538228Y-41458297D01*
X34373816Y-41491000D01*
X34206184Y-41491000D01*
X34041772Y-41458297D01*
X33886900Y-41394147D01*
X33747519Y-41301015D01*
X33628985Y-41182481D01*
X33535853Y-41043100D01*
X33471703Y-40888228D01*
X33439000Y-40723816D01*
X33439000Y-40556184D01*
X33471703Y-40391772D01*
X33535853Y-40236900D01*
X33628985Y-40097519D01*
X33747519Y-39978985D01*
X33886900Y-39885853D01*
X34041772Y-39821703D01*
X34206184Y-39789000D01*
X34373816Y-39789000D01*
X34538228Y-39821703D01*
G37*
G36*
X49778228Y-39821703D02*
G01*
X49933100Y-39885853D01*
X50072481Y-39978985D01*
X50191015Y-40097519D01*
X50284147Y-40236900D01*
X50348297Y-40391772D01*
X50381000Y-40556184D01*
X50381000Y-40723816D01*
X50348297Y-40888228D01*
X50284147Y-41043100D01*
X50191015Y-41182481D01*
X50072481Y-41301015D01*
X49933100Y-41394147D01*
X49778228Y-41458297D01*
X49613816Y-41491000D01*
X49446184Y-41491000D01*
X49281772Y-41458297D01*
X49126900Y-41394147D01*
X48987519Y-41301015D01*
X48868985Y-41182481D01*
X48775853Y-41043100D01*
X48711703Y-40888228D01*
X48679000Y-40723816D01*
X48679000Y-40556184D01*
X48711703Y-40391772D01*
X48775853Y-40236900D01*
X48868985Y-40097519D01*
X48987519Y-39978985D01*
X49126900Y-39885853D01*
X49281772Y-39821703D01*
X49446184Y-39789000D01*
X49613816Y-39789000D01*
X49778228Y-39821703D01*
G37*
G36*
X56781000Y-40906000D02*
G01*
X54979000Y-40906000D01*
X54979000Y-39104000D01*
X56781000Y-39104000D01*
X56781000Y-40906000D01*
G37*
G36*
X60591000Y-40906000D02*
G01*
X58789000Y-40906000D01*
X58789000Y-39104000D01*
X60591000Y-39104000D01*
X60591000Y-40906000D01*
G37*
G36*
X62478228Y-39186703D02*
G01*
X62633100Y-39250853D01*
X62772481Y-39343985D01*
X62891015Y-39462519D01*
X62984147Y-39601900D01*
X63048297Y-39756772D01*
X63081000Y-39921184D01*
X63081000Y-40088816D01*
X63048297Y-40253228D01*
X62984147Y-40408100D01*
X62891015Y-40547481D01*
X62772481Y-40666015D01*
X62633100Y-40759147D01*
X62478228Y-40823297D01*
X62313816Y-40856000D01*
X62146184Y-40856000D01*
X61981772Y-40823297D01*
X61826900Y-40759147D01*
X61687519Y-40666015D01*
X61568985Y-40547481D01*
X61475853Y-40408100D01*
X61411703Y-40253228D01*
X61379000Y-40088816D01*
X61379000Y-39921184D01*
X61411703Y-39756772D01*
X61475853Y-39601900D01*
X61568985Y-39462519D01*
X61687519Y-39343985D01*
X61826900Y-39250853D01*
X61981772Y-39186703D01*
X62146184Y-39154000D01*
X62313816Y-39154000D01*
X62478228Y-39186703D01*
G37*
G36*
X65018228Y-39186703D02*
G01*
X65173100Y-39250853D01*
X65312481Y-39343985D01*
X65431015Y-39462519D01*
X65524147Y-39601900D01*
X65588297Y-39756772D01*
X65621000Y-39921184D01*
X65621000Y-40088816D01*
X65588297Y-40253228D01*
X65524147Y-40408100D01*
X65431015Y-40547481D01*
X65312481Y-40666015D01*
X65173100Y-40759147D01*
X65018228Y-40823297D01*
X64853816Y-40856000D01*
X64686184Y-40856000D01*
X64521772Y-40823297D01*
X64366900Y-40759147D01*
X64227519Y-40666015D01*
X64108985Y-40547481D01*
X64015853Y-40408100D01*
X63951703Y-40253228D01*
X63919000Y-40088816D01*
X63919000Y-39921184D01*
X63951703Y-39756772D01*
X64015853Y-39601900D01*
X64108985Y-39462519D01*
X64227519Y-39343985D01*
X64366900Y-39250853D01*
X64521772Y-39186703D01*
X64686184Y-39154000D01*
X64853816Y-39154000D01*
X65018228Y-39186703D01*
G37*
G36*
X13601000Y-40271000D02*
G01*
X11799000Y-40271000D01*
X11799000Y-38469000D01*
X13601000Y-38469000D01*
X13601000Y-40271000D01*
G37*
G36*
X21221000Y-40271000D02*
G01*
X19419000Y-40271000D01*
X19419000Y-38469000D01*
X21221000Y-38469000D01*
X21221000Y-40271000D01*
G37*
G36*
X26301000Y-40271000D02*
G01*
X24499000Y-40271000D01*
X24499000Y-38469000D01*
X26301000Y-38469000D01*
X26301000Y-40271000D01*
G37*
G36*
X8521000Y-40271000D02*
G01*
X6719000Y-40271000D01*
X6719000Y-38469000D01*
X8521000Y-38469000D01*
X8521000Y-40271000D01*
G37*
G36*
X49778228Y-37281703D02*
G01*
X49933100Y-37345853D01*
X50072481Y-37438985D01*
X50191015Y-37557519D01*
X50284147Y-37696900D01*
X50348297Y-37851772D01*
X50381000Y-38016184D01*
X50381000Y-38183816D01*
X50348297Y-38348228D01*
X50284147Y-38503100D01*
X50191015Y-38642481D01*
X50072481Y-38761015D01*
X49933100Y-38854147D01*
X49778228Y-38918297D01*
X49613816Y-38951000D01*
X49446184Y-38951000D01*
X49281772Y-38918297D01*
X49126900Y-38854147D01*
X48987519Y-38761015D01*
X48868985Y-38642481D01*
X48775853Y-38503100D01*
X48711703Y-38348228D01*
X48679000Y-38183816D01*
X48679000Y-38016184D01*
X48711703Y-37851772D01*
X48775853Y-37696900D01*
X48868985Y-37557519D01*
X48987519Y-37438985D01*
X49126900Y-37345853D01*
X49281772Y-37281703D01*
X49446184Y-37249000D01*
X49613816Y-37249000D01*
X49778228Y-37281703D01*
G37*
G36*
X34538228Y-37281703D02*
G01*
X34693100Y-37345853D01*
X34832481Y-37438985D01*
X34951015Y-37557519D01*
X35044147Y-37696900D01*
X35108297Y-37851772D01*
X35141000Y-38016184D01*
X35141000Y-38183816D01*
X35108297Y-38348228D01*
X35044147Y-38503100D01*
X34951015Y-38642481D01*
X34832481Y-38761015D01*
X34693100Y-38854147D01*
X34538228Y-38918297D01*
X34373816Y-38951000D01*
X34206184Y-38951000D01*
X34041772Y-38918297D01*
X33886900Y-38854147D01*
X33747519Y-38761015D01*
X33628985Y-38642481D01*
X33535853Y-38503100D01*
X33471703Y-38348228D01*
X33439000Y-38183816D01*
X33439000Y-38016184D01*
X33471703Y-37851772D01*
X33535853Y-37696900D01*
X33628985Y-37557519D01*
X33747519Y-37438985D01*
X33886900Y-37345853D01*
X34041772Y-37281703D01*
X34206184Y-37249000D01*
X34373816Y-37249000D01*
X34538228Y-37281703D01*
G37*
G36*
X7868228Y-34741703D02*
G01*
X8023100Y-34805853D01*
X8162481Y-34898985D01*
X8281015Y-35017519D01*
X8374147Y-35156900D01*
X8438297Y-35311772D01*
X8471000Y-35476184D01*
X8471000Y-35643816D01*
X8438297Y-35808228D01*
X8374147Y-35963100D01*
X8281015Y-36102481D01*
X8162481Y-36221015D01*
X8023100Y-36314147D01*
X7868228Y-36378297D01*
X7703816Y-36411000D01*
X7536184Y-36411000D01*
X7371772Y-36378297D01*
X7216900Y-36314147D01*
X7077519Y-36221015D01*
X6958985Y-36102481D01*
X6865853Y-35963100D01*
X6801703Y-35808228D01*
X6769000Y-35643816D01*
X6769000Y-35476184D01*
X6801703Y-35311772D01*
X6865853Y-35156900D01*
X6958985Y-35017519D01*
X7077519Y-34898985D01*
X7216900Y-34805853D01*
X7371772Y-34741703D01*
X7536184Y-34709000D01*
X7703816Y-34709000D01*
X7868228Y-34741703D01*
G37*
G36*
X49778228Y-34741703D02*
G01*
X49933100Y-34805853D01*
X50072481Y-34898985D01*
X50191015Y-35017519D01*
X50284147Y-35156900D01*
X50348297Y-35311772D01*
X50381000Y-35476184D01*
X50381000Y-35643816D01*
X50348297Y-35808228D01*
X50284147Y-35963100D01*
X50191015Y-36102481D01*
X50072481Y-36221015D01*
X49933100Y-36314147D01*
X49778228Y-36378297D01*
X49613816Y-36411000D01*
X49446184Y-36411000D01*
X49281772Y-36378297D01*
X49126900Y-36314147D01*
X48987519Y-36221015D01*
X48868985Y-36102481D01*
X48775853Y-35963100D01*
X48711703Y-35808228D01*
X48679000Y-35643816D01*
X48679000Y-35476184D01*
X48711703Y-35311772D01*
X48775853Y-35156900D01*
X48868985Y-35017519D01*
X48987519Y-34898985D01*
X49126900Y-34805853D01*
X49281772Y-34741703D01*
X49446184Y-34709000D01*
X49613816Y-34709000D01*
X49778228Y-34741703D01*
G37*
G36*
X34538228Y-34741703D02*
G01*
X34693100Y-34805853D01*
X34832481Y-34898985D01*
X34951015Y-35017519D01*
X35044147Y-35156900D01*
X35108297Y-35311772D01*
X35141000Y-35476184D01*
X35141000Y-35643816D01*
X35108297Y-35808228D01*
X35044147Y-35963100D01*
X34951015Y-36102481D01*
X34832481Y-36221015D01*
X34693100Y-36314147D01*
X34538228Y-36378297D01*
X34373816Y-36411000D01*
X34206184Y-36411000D01*
X34041772Y-36378297D01*
X33886900Y-36314147D01*
X33747519Y-36221015D01*
X33628985Y-36102481D01*
X33535853Y-35963100D01*
X33471703Y-35808228D01*
X33439000Y-35643816D01*
X33439000Y-35476184D01*
X33471703Y-35311772D01*
X33535853Y-35156900D01*
X33628985Y-35017519D01*
X33747519Y-34898985D01*
X33886900Y-34805853D01*
X34041772Y-34741703D01*
X34206184Y-34709000D01*
X34373816Y-34709000D01*
X34538228Y-34741703D01*
G37*
G36*
X25648228Y-34741703D02*
G01*
X25803100Y-34805853D01*
X25942481Y-34898985D01*
X26061015Y-35017519D01*
X26154147Y-35156900D01*
X26218297Y-35311772D01*
X26251000Y-35476184D01*
X26251000Y-35643816D01*
X26218297Y-35808228D01*
X26154147Y-35963100D01*
X26061015Y-36102481D01*
X25942481Y-36221015D01*
X25803100Y-36314147D01*
X25648228Y-36378297D01*
X25483816Y-36411000D01*
X25316184Y-36411000D01*
X25151772Y-36378297D01*
X24996900Y-36314147D01*
X24857519Y-36221015D01*
X24738985Y-36102481D01*
X24645853Y-35963100D01*
X24581703Y-35808228D01*
X24549000Y-35643816D01*
X24549000Y-35476184D01*
X24581703Y-35311772D01*
X24645853Y-35156900D01*
X24738985Y-35017519D01*
X24857519Y-34898985D01*
X24996900Y-34805853D01*
X25151772Y-34741703D01*
X25316184Y-34709000D01*
X25483816Y-34709000D01*
X25648228Y-34741703D01*
G37*
G36*
X20568228Y-34741703D02*
G01*
X20723100Y-34805853D01*
X20862481Y-34898985D01*
X20981015Y-35017519D01*
X21074147Y-35156900D01*
X21138297Y-35311772D01*
X21171000Y-35476184D01*
X21171000Y-35643816D01*
X21138297Y-35808228D01*
X21074147Y-35963100D01*
X20981015Y-36102481D01*
X20862481Y-36221015D01*
X20723100Y-36314147D01*
X20568228Y-36378297D01*
X20403816Y-36411000D01*
X20236184Y-36411000D01*
X20071772Y-36378297D01*
X19916900Y-36314147D01*
X19777519Y-36221015D01*
X19658985Y-36102481D01*
X19565853Y-35963100D01*
X19501703Y-35808228D01*
X19469000Y-35643816D01*
X19469000Y-35476184D01*
X19501703Y-35311772D01*
X19565853Y-35156900D01*
X19658985Y-35017519D01*
X19777519Y-34898985D01*
X19916900Y-34805853D01*
X20071772Y-34741703D01*
X20236184Y-34709000D01*
X20403816Y-34709000D01*
X20568228Y-34741703D01*
G37*
G36*
X12948228Y-34741703D02*
G01*
X13103100Y-34805853D01*
X13242481Y-34898985D01*
X13361015Y-35017519D01*
X13454147Y-35156900D01*
X13518297Y-35311772D01*
X13551000Y-35476184D01*
X13551000Y-35643816D01*
X13518297Y-35808228D01*
X13454147Y-35963100D01*
X13361015Y-36102481D01*
X13242481Y-36221015D01*
X13103100Y-36314147D01*
X12948228Y-36378297D01*
X12783816Y-36411000D01*
X12616184Y-36411000D01*
X12451772Y-36378297D01*
X12296900Y-36314147D01*
X12157519Y-36221015D01*
X12038985Y-36102481D01*
X11945853Y-35963100D01*
X11881703Y-35808228D01*
X11849000Y-35643816D01*
X11849000Y-35476184D01*
X11881703Y-35311772D01*
X11945853Y-35156900D01*
X12038985Y-35017519D01*
X12157519Y-34898985D01*
X12296900Y-34805853D01*
X12451772Y-34741703D01*
X12616184Y-34709000D01*
X12783816Y-34709000D01*
X12948228Y-34741703D01*
G37*
G36*
X65671000Y-34556000D02*
G01*
X63869000Y-34556000D01*
X63869000Y-32754000D01*
X65671000Y-32754000D01*
X65671000Y-34556000D01*
G37*
G36*
X55511000Y-34556000D02*
G01*
X53709000Y-34556000D01*
X53709000Y-32754000D01*
X55511000Y-32754000D01*
X55511000Y-34556000D01*
G37*
G36*
X49778228Y-32201703D02*
G01*
X49933100Y-32265853D01*
X50072481Y-32358985D01*
X50191015Y-32477519D01*
X50284147Y-32616900D01*
X50348297Y-32771772D01*
X50381000Y-32936184D01*
X50381000Y-33103816D01*
X50348297Y-33268228D01*
X50284147Y-33423100D01*
X50191015Y-33562481D01*
X50072481Y-33681015D01*
X49933100Y-33774147D01*
X49778228Y-33838297D01*
X49613816Y-33871000D01*
X49446184Y-33871000D01*
X49281772Y-33838297D01*
X49126900Y-33774147D01*
X48987519Y-33681015D01*
X48868985Y-33562481D01*
X48775853Y-33423100D01*
X48711703Y-33268228D01*
X48679000Y-33103816D01*
X48679000Y-32936184D01*
X48711703Y-32771772D01*
X48775853Y-32616900D01*
X48868985Y-32477519D01*
X48987519Y-32358985D01*
X49126900Y-32265853D01*
X49281772Y-32201703D01*
X49446184Y-32169000D01*
X49613816Y-32169000D01*
X49778228Y-32201703D01*
G37*
G36*
X34538228Y-32201703D02*
G01*
X34693100Y-32265853D01*
X34832481Y-32358985D01*
X34951015Y-32477519D01*
X35044147Y-32616900D01*
X35108297Y-32771772D01*
X35141000Y-32936184D01*
X35141000Y-33103816D01*
X35108297Y-33268228D01*
X35044147Y-33423100D01*
X34951015Y-33562481D01*
X34832481Y-33681015D01*
X34693100Y-33774147D01*
X34538228Y-33838297D01*
X34373816Y-33871000D01*
X34206184Y-33871000D01*
X34041772Y-33838297D01*
X33886900Y-33774147D01*
X33747519Y-33681015D01*
X33628985Y-33562481D01*
X33535853Y-33423100D01*
X33471703Y-33268228D01*
X33439000Y-33103816D01*
X33439000Y-32936184D01*
X33471703Y-32771772D01*
X33535853Y-32616900D01*
X33628985Y-32477519D01*
X33747519Y-32358985D01*
X33886900Y-32265853D01*
X34041772Y-32201703D01*
X34206184Y-32169000D01*
X34373816Y-32169000D01*
X34538228Y-32201703D01*
G37*
G36*
X12948228Y-29661703D02*
G01*
X13103100Y-29725853D01*
X13242481Y-29818985D01*
X13361015Y-29937519D01*
X13454147Y-30076900D01*
X13518297Y-30231772D01*
X13551000Y-30396184D01*
X13551000Y-30563816D01*
X13518297Y-30728228D01*
X13454147Y-30883100D01*
X13361015Y-31022481D01*
X13242481Y-31141015D01*
X13103100Y-31234147D01*
X12948228Y-31298297D01*
X12783816Y-31331000D01*
X12616184Y-31331000D01*
X12451772Y-31298297D01*
X12296900Y-31234147D01*
X12157519Y-31141015D01*
X12038985Y-31022481D01*
X11945853Y-30883100D01*
X11881703Y-30728228D01*
X11849000Y-30563816D01*
X11849000Y-30396184D01*
X11881703Y-30231772D01*
X11945853Y-30076900D01*
X12038985Y-29937519D01*
X12157519Y-29818985D01*
X12296900Y-29725853D01*
X12451772Y-29661703D01*
X12616184Y-29629000D01*
X12783816Y-29629000D01*
X12948228Y-29661703D01*
G37*
G36*
X49778228Y-29661703D02*
G01*
X49933100Y-29725853D01*
X50072481Y-29818985D01*
X50191015Y-29937519D01*
X50284147Y-30076900D01*
X50348297Y-30231772D01*
X50381000Y-30396184D01*
X50381000Y-30563816D01*
X50348297Y-30728228D01*
X50284147Y-30883100D01*
X50191015Y-31022481D01*
X50072481Y-31141015D01*
X49933100Y-31234147D01*
X49778228Y-31298297D01*
X49613816Y-31331000D01*
X49446184Y-31331000D01*
X49281772Y-31298297D01*
X49126900Y-31234147D01*
X48987519Y-31141015D01*
X48868985Y-31022481D01*
X48775853Y-30883100D01*
X48711703Y-30728228D01*
X48679000Y-30563816D01*
X48679000Y-30396184D01*
X48711703Y-30231772D01*
X48775853Y-30076900D01*
X48868985Y-29937519D01*
X48987519Y-29818985D01*
X49126900Y-29725853D01*
X49281772Y-29661703D01*
X49446184Y-29629000D01*
X49613816Y-29629000D01*
X49778228Y-29661703D01*
G37*
G36*
X34538228Y-29661703D02*
G01*
X34693100Y-29725853D01*
X34832481Y-29818985D01*
X34951015Y-29937519D01*
X35044147Y-30076900D01*
X35108297Y-30231772D01*
X35141000Y-30396184D01*
X35141000Y-30563816D01*
X35108297Y-30728228D01*
X35044147Y-30883100D01*
X34951015Y-31022481D01*
X34832481Y-31141015D01*
X34693100Y-31234147D01*
X34538228Y-31298297D01*
X34373816Y-31331000D01*
X34206184Y-31331000D01*
X34041772Y-31298297D01*
X33886900Y-31234147D01*
X33747519Y-31141015D01*
X33628985Y-31022481D01*
X33535853Y-30883100D01*
X33471703Y-30728228D01*
X33439000Y-30563816D01*
X33439000Y-30396184D01*
X33471703Y-30231772D01*
X33535853Y-30076900D01*
X33628985Y-29937519D01*
X33747519Y-29818985D01*
X33886900Y-29725853D01*
X34041772Y-29661703D01*
X34206184Y-29629000D01*
X34373816Y-29629000D01*
X34538228Y-29661703D01*
G37*
G36*
X20568228Y-29661703D02*
G01*
X20723100Y-29725853D01*
X20862481Y-29818985D01*
X20981015Y-29937519D01*
X21074147Y-30076900D01*
X21138297Y-30231772D01*
X21171000Y-30396184D01*
X21171000Y-30563816D01*
X21138297Y-30728228D01*
X21074147Y-30883100D01*
X20981015Y-31022481D01*
X20862481Y-31141015D01*
X20723100Y-31234147D01*
X20568228Y-31298297D01*
X20403816Y-31331000D01*
X20236184Y-31331000D01*
X20071772Y-31298297D01*
X19916900Y-31234147D01*
X19777519Y-31141015D01*
X19658985Y-31022481D01*
X19565853Y-30883100D01*
X19501703Y-30728228D01*
X19469000Y-30563816D01*
X19469000Y-30396184D01*
X19501703Y-30231772D01*
X19565853Y-30076900D01*
X19658985Y-29937519D01*
X19777519Y-29818985D01*
X19916900Y-29725853D01*
X20071772Y-29661703D01*
X20236184Y-29629000D01*
X20403816Y-29629000D01*
X20568228Y-29661703D01*
G37*
G36*
X25648228Y-29661703D02*
G01*
X25803100Y-29725853D01*
X25942481Y-29818985D01*
X26061015Y-29937519D01*
X26154147Y-30076900D01*
X26218297Y-30231772D01*
X26251000Y-30396184D01*
X26251000Y-30563816D01*
X26218297Y-30728228D01*
X26154147Y-30883100D01*
X26061015Y-31022481D01*
X25942481Y-31141015D01*
X25803100Y-31234147D01*
X25648228Y-31298297D01*
X25483816Y-31331000D01*
X25316184Y-31331000D01*
X25151772Y-31298297D01*
X24996900Y-31234147D01*
X24857519Y-31141015D01*
X24738985Y-31022481D01*
X24645853Y-30883100D01*
X24581703Y-30728228D01*
X24549000Y-30563816D01*
X24549000Y-30396184D01*
X24581703Y-30231772D01*
X24645853Y-30076900D01*
X24738985Y-29937519D01*
X24857519Y-29818985D01*
X24996900Y-29725853D01*
X25151772Y-29661703D01*
X25316184Y-29629000D01*
X25483816Y-29629000D01*
X25648228Y-29661703D01*
G37*
G36*
X7868228Y-29661703D02*
G01*
X8023100Y-29725853D01*
X8162481Y-29818985D01*
X8281015Y-29937519D01*
X8374147Y-30076900D01*
X8438297Y-30231772D01*
X8471000Y-30396184D01*
X8471000Y-30563816D01*
X8438297Y-30728228D01*
X8374147Y-30883100D01*
X8281015Y-31022481D01*
X8162481Y-31141015D01*
X8023100Y-31234147D01*
X7868228Y-31298297D01*
X7703816Y-31331000D01*
X7536184Y-31331000D01*
X7371772Y-31298297D01*
X7216900Y-31234147D01*
X7077519Y-31141015D01*
X6958985Y-31022481D01*
X6865853Y-30883100D01*
X6801703Y-30728228D01*
X6769000Y-30563816D01*
X6769000Y-30396184D01*
X6801703Y-30231772D01*
X6865853Y-30076900D01*
X6958985Y-29937519D01*
X7077519Y-29818985D01*
X7216900Y-29725853D01*
X7371772Y-29661703D01*
X7536184Y-29629000D01*
X7703816Y-29629000D01*
X7868228Y-29661703D01*
G37*
G36*
X59321000Y-30746000D02*
G01*
X57519000Y-30746000D01*
X57519000Y-28944000D01*
X59321000Y-28944000D01*
X59321000Y-30746000D01*
G37*
G36*
X65671000Y-30746000D02*
G01*
X63869000Y-30746000D01*
X63869000Y-28944000D01*
X65671000Y-28944000D01*
X65671000Y-30746000D01*
G37*
G36*
X49778228Y-27121703D02*
G01*
X49933100Y-27185853D01*
X50072481Y-27278985D01*
X50191015Y-27397519D01*
X50284147Y-27536900D01*
X50348297Y-27691772D01*
X50381000Y-27856184D01*
X50381000Y-28023816D01*
X50348297Y-28188228D01*
X50284147Y-28343100D01*
X50191015Y-28482481D01*
X50072481Y-28601015D01*
X49933100Y-28694147D01*
X49778228Y-28758297D01*
X49613816Y-28791000D01*
X49446184Y-28791000D01*
X49281772Y-28758297D01*
X49126900Y-28694147D01*
X48987519Y-28601015D01*
X48868985Y-28482481D01*
X48775853Y-28343100D01*
X48711703Y-28188228D01*
X48679000Y-28023816D01*
X48679000Y-27856184D01*
X48711703Y-27691772D01*
X48775853Y-27536900D01*
X48868985Y-27397519D01*
X48987519Y-27278985D01*
X49126900Y-27185853D01*
X49281772Y-27121703D01*
X49446184Y-27089000D01*
X49613816Y-27089000D01*
X49778228Y-27121703D01*
G37*
G36*
X34538228Y-27121703D02*
G01*
X34693100Y-27185853D01*
X34832481Y-27278985D01*
X34951015Y-27397519D01*
X35044147Y-27536900D01*
X35108297Y-27691772D01*
X35141000Y-27856184D01*
X35141000Y-28023816D01*
X35108297Y-28188228D01*
X35044147Y-28343100D01*
X34951015Y-28482481D01*
X34832481Y-28601015D01*
X34693100Y-28694147D01*
X34538228Y-28758297D01*
X34373816Y-28791000D01*
X34206184Y-28791000D01*
X34041772Y-28758297D01*
X33886900Y-28694147D01*
X33747519Y-28601015D01*
X33628985Y-28482481D01*
X33535853Y-28343100D01*
X33471703Y-28188228D01*
X33439000Y-28023816D01*
X33439000Y-27856184D01*
X33471703Y-27691772D01*
X33535853Y-27536900D01*
X33628985Y-27397519D01*
X33747519Y-27278985D01*
X33886900Y-27185853D01*
X34041772Y-27121703D01*
X34206184Y-27089000D01*
X34373816Y-27089000D01*
X34538228Y-27121703D01*
G37*
G36*
X13601000Y-27571000D02*
G01*
X11799000Y-27571000D01*
X11799000Y-25769000D01*
X13601000Y-25769000D01*
X13601000Y-27571000D01*
G37*
G36*
X26301000Y-27571000D02*
G01*
X24499000Y-27571000D01*
X24499000Y-25769000D01*
X26301000Y-25769000D01*
X26301000Y-27571000D01*
G37*
G36*
X34538228Y-24581703D02*
G01*
X34693100Y-24645853D01*
X34832481Y-24738985D01*
X34951015Y-24857519D01*
X35044147Y-24996900D01*
X35108297Y-25151772D01*
X35141000Y-25316184D01*
X35141000Y-25483816D01*
X35108297Y-25648228D01*
X35044147Y-25803100D01*
X34951015Y-25942481D01*
X34832481Y-26061015D01*
X34693100Y-26154147D01*
X34538228Y-26218297D01*
X34373816Y-26251000D01*
X34206184Y-26251000D01*
X34041772Y-26218297D01*
X33886900Y-26154147D01*
X33747519Y-26061015D01*
X33628985Y-25942481D01*
X33535853Y-25803100D01*
X33471703Y-25648228D01*
X33439000Y-25483816D01*
X33439000Y-25316184D01*
X33471703Y-25151772D01*
X33535853Y-24996900D01*
X33628985Y-24857519D01*
X33747519Y-24738985D01*
X33886900Y-24645853D01*
X34041772Y-24581703D01*
X34206184Y-24549000D01*
X34373816Y-24549000D01*
X34538228Y-24581703D01*
G37*
G36*
X49778228Y-24581703D02*
G01*
X49933100Y-24645853D01*
X50072481Y-24738985D01*
X50191015Y-24857519D01*
X50284147Y-24996900D01*
X50348297Y-25151772D01*
X50381000Y-25316184D01*
X50381000Y-25483816D01*
X50348297Y-25648228D01*
X50284147Y-25803100D01*
X50191015Y-25942481D01*
X50072481Y-26061015D01*
X49933100Y-26154147D01*
X49778228Y-26218297D01*
X49613816Y-26251000D01*
X49446184Y-26251000D01*
X49281772Y-26218297D01*
X49126900Y-26154147D01*
X48987519Y-26061015D01*
X48868985Y-25942481D01*
X48775853Y-25803100D01*
X48711703Y-25648228D01*
X48679000Y-25483816D01*
X48679000Y-25316184D01*
X48711703Y-25151772D01*
X48775853Y-24996900D01*
X48868985Y-24857519D01*
X48987519Y-24738985D01*
X49126900Y-24645853D01*
X49281772Y-24581703D01*
X49446184Y-24549000D01*
X49613816Y-24549000D01*
X49778228Y-24581703D01*
G37*
G36*
X66315880Y-19984776D02*
G01*
X66696593Y-20060504D01*
X67106249Y-20230189D01*
X67474929Y-20476534D01*
X67788466Y-20790071D01*
X68034811Y-21158751D01*
X68204496Y-21568407D01*
X68291000Y-22003296D01*
X68291000Y-22446704D01*
X68204496Y-22881593D01*
X68034811Y-23291249D01*
X67788466Y-23659929D01*
X67474929Y-23973466D01*
X67106249Y-24219811D01*
X66696593Y-24389496D01*
X66315880Y-24465224D01*
X66261705Y-24476000D01*
X65818295Y-24476000D01*
X65764120Y-24465224D01*
X65383407Y-24389496D01*
X64973751Y-24219811D01*
X64605071Y-23973466D01*
X64291534Y-23659929D01*
X64045189Y-23291249D01*
X63875504Y-22881593D01*
X63789000Y-22446704D01*
X63789000Y-22003296D01*
X63875504Y-21568407D01*
X64045189Y-21158751D01*
X64291534Y-20790071D01*
X64605071Y-20476534D01*
X64973751Y-20230189D01*
X65383407Y-20060504D01*
X65764120Y-19984776D01*
X65818295Y-19974000D01*
X66261705Y-19974000D01*
X66315880Y-19984776D01*
G37*
G36*
X25596719Y-21823520D02*
G01*
X25785880Y-21880901D01*
X25785883Y-21880902D01*
X25878333Y-21930318D01*
X25960212Y-21974083D01*
X26113015Y-22099485D01*
X26238417Y-22252288D01*
X26331599Y-22426619D01*
X26388980Y-22615780D01*
X26403500Y-22763206D01*
X26403500Y-22956793D01*
X26388980Y-23104219D01*
X26340785Y-23263097D01*
X26331598Y-23293383D01*
X26282182Y-23385833D01*
X26238417Y-23467712D01*
X26113015Y-23620515D01*
X25960212Y-23745917D01*
X25785881Y-23839099D01*
X25596720Y-23896480D01*
X25400000Y-23915855D01*
X25203281Y-23896480D01*
X25014120Y-23839099D01*
X24839788Y-23745917D01*
X24686985Y-23620515D01*
X24561583Y-23467712D01*
X24468401Y-23293381D01*
X24411020Y-23104220D01*
X24396500Y-22956794D01*
X24396500Y-22763207D01*
X24411020Y-22615781D01*
X24468401Y-22426620D01*
X24468402Y-22426617D01*
X24526716Y-22317520D01*
X24561583Y-22252288D01*
X24686985Y-22099485D01*
X24839788Y-21974083D01*
X25014119Y-21880901D01*
X25203280Y-21823520D01*
X25400000Y-21804145D01*
X25596719Y-21823520D01*
G37*
G36*
X10356719Y-21823520D02*
G01*
X10545880Y-21880901D01*
X10545883Y-21880902D01*
X10638333Y-21930318D01*
X10720212Y-21974083D01*
X10873015Y-22099485D01*
X10998417Y-22252288D01*
X11091599Y-22426619D01*
X11148980Y-22615780D01*
X11163500Y-22763206D01*
X11163500Y-22956793D01*
X11148980Y-23104219D01*
X11100785Y-23263097D01*
X11091598Y-23293383D01*
X11042182Y-23385833D01*
X10998417Y-23467712D01*
X10873015Y-23620515D01*
X10720212Y-23745917D01*
X10545881Y-23839099D01*
X10356720Y-23896480D01*
X10160000Y-23915855D01*
X9963281Y-23896480D01*
X9774120Y-23839099D01*
X9599788Y-23745917D01*
X9446985Y-23620515D01*
X9321583Y-23467712D01*
X9228401Y-23293381D01*
X9171020Y-23104220D01*
X9156500Y-22956794D01*
X9156500Y-22763207D01*
X9171020Y-22615781D01*
X9228401Y-22426620D01*
X9228402Y-22426617D01*
X9286716Y-22317520D01*
X9321583Y-22252288D01*
X9446985Y-22099485D01*
X9599788Y-21974083D01*
X9774119Y-21880901D01*
X9963280Y-21823520D01*
X10160000Y-21804145D01*
X10356719Y-21823520D01*
G37*
G36*
X12896719Y-21823520D02*
G01*
X13085880Y-21880901D01*
X13085883Y-21880902D01*
X13178333Y-21930318D01*
X13260212Y-21974083D01*
X13413015Y-22099485D01*
X13538417Y-22252288D01*
X13631599Y-22426619D01*
X13688980Y-22615780D01*
X13703500Y-22763206D01*
X13703500Y-22956793D01*
X13688980Y-23104219D01*
X13640785Y-23263097D01*
X13631598Y-23293383D01*
X13582182Y-23385833D01*
X13538417Y-23467712D01*
X13413015Y-23620515D01*
X13260212Y-23745917D01*
X13085881Y-23839099D01*
X12896720Y-23896480D01*
X12700000Y-23915855D01*
X12503281Y-23896480D01*
X12314120Y-23839099D01*
X12139788Y-23745917D01*
X11986985Y-23620515D01*
X11861583Y-23467712D01*
X11768401Y-23293381D01*
X11711020Y-23104220D01*
X11696500Y-22956794D01*
X11696500Y-22763207D01*
X11711020Y-22615781D01*
X11768401Y-22426620D01*
X11768402Y-22426617D01*
X11826716Y-22317520D01*
X11861583Y-22252288D01*
X11986985Y-22099485D01*
X12139788Y-21974083D01*
X12314119Y-21880901D01*
X12503280Y-21823520D01*
X12700000Y-21804145D01*
X12896719Y-21823520D01*
G37*
G36*
X23056719Y-21823520D02*
G01*
X23245880Y-21880901D01*
X23245883Y-21880902D01*
X23338333Y-21930318D01*
X23420212Y-21974083D01*
X23573015Y-22099485D01*
X23698417Y-22252288D01*
X23791599Y-22426619D01*
X23848980Y-22615780D01*
X23863500Y-22763206D01*
X23863500Y-22956793D01*
X23848980Y-23104219D01*
X23800785Y-23263097D01*
X23791598Y-23293383D01*
X23742182Y-23385833D01*
X23698417Y-23467712D01*
X23573015Y-23620515D01*
X23420212Y-23745917D01*
X23245881Y-23839099D01*
X23056720Y-23896480D01*
X22860000Y-23915855D01*
X22663281Y-23896480D01*
X22474120Y-23839099D01*
X22299788Y-23745917D01*
X22146985Y-23620515D01*
X22021583Y-23467712D01*
X21928401Y-23293381D01*
X21871020Y-23104220D01*
X21856500Y-22956794D01*
X21856500Y-22763207D01*
X21871020Y-22615781D01*
X21928401Y-22426620D01*
X21928402Y-22426617D01*
X21986716Y-22317520D01*
X22021583Y-22252288D01*
X22146985Y-22099485D01*
X22299788Y-21974083D01*
X22474119Y-21880901D01*
X22663280Y-21823520D01*
X22860000Y-21804145D01*
X23056719Y-21823520D01*
G37*
G36*
X8623500Y-23911000D02*
G01*
X6616500Y-23911000D01*
X6616500Y-21809000D01*
X8623500Y-21809000D01*
X8623500Y-23911000D01*
G37*
G36*
X21323500Y-23911000D02*
G01*
X19316500Y-23911000D01*
X19316500Y-21809000D01*
X21323500Y-21809000D01*
X21323500Y-23911000D01*
G37*
G36*
X34538228Y-22041703D02*
G01*
X34693100Y-22105853D01*
X34832481Y-22198985D01*
X34951015Y-22317519D01*
X35044147Y-22456900D01*
X35108297Y-22611772D01*
X35141000Y-22776184D01*
X35141000Y-22943816D01*
X35108297Y-23108228D01*
X35044147Y-23263100D01*
X34951015Y-23402481D01*
X34832481Y-23521015D01*
X34693100Y-23614147D01*
X34538228Y-23678297D01*
X34373816Y-23711000D01*
X34206184Y-23711000D01*
X34041772Y-23678297D01*
X33886900Y-23614147D01*
X33747519Y-23521015D01*
X33628985Y-23402481D01*
X33535853Y-23263100D01*
X33471703Y-23108228D01*
X33439000Y-22943816D01*
X33439000Y-22776184D01*
X33471703Y-22611772D01*
X33535853Y-22456900D01*
X33628985Y-22317519D01*
X33747519Y-22198985D01*
X33886900Y-22105853D01*
X34041772Y-22041703D01*
X34206184Y-22009000D01*
X34373816Y-22009000D01*
X34538228Y-22041703D01*
G37*
G36*
X49778228Y-22041703D02*
G01*
X49933100Y-22105853D01*
X50072481Y-22198985D01*
X50191015Y-22317519D01*
X50284147Y-22456900D01*
X50348297Y-22611772D01*
X50381000Y-22776184D01*
X50381000Y-22943816D01*
X50348297Y-23108228D01*
X50284147Y-23263100D01*
X50191015Y-23402481D01*
X50072481Y-23521015D01*
X49933100Y-23614147D01*
X49778228Y-23678297D01*
X49613816Y-23711000D01*
X49446184Y-23711000D01*
X49281772Y-23678297D01*
X49126900Y-23614147D01*
X48987519Y-23521015D01*
X48868985Y-23402481D01*
X48775853Y-23263100D01*
X48711703Y-23108228D01*
X48679000Y-22943816D01*
X48679000Y-22776184D01*
X48711703Y-22611772D01*
X48775853Y-22456900D01*
X48868985Y-22317519D01*
X48987519Y-22198985D01*
X49126900Y-22105853D01*
X49281772Y-22041703D01*
X49446184Y-22009000D01*
X49613816Y-22009000D01*
X49778228Y-22041703D01*
G37*
G36*
X61072915Y-21432334D02*
G01*
X61181491Y-21465271D01*
X61181494Y-21465272D01*
X61217600Y-21484571D01*
X61281556Y-21518756D01*
X61369264Y-21590736D01*
X61441244Y-21678443D01*
X61475429Y-21742399D01*
X61494728Y-21778505D01*
X61494729Y-21778508D01*
X61527666Y-21887084D01*
X61536000Y-21971702D01*
X61536000Y-22478297D01*
X61527666Y-22562916D01*
X61495252Y-22669767D01*
X61494728Y-22671495D01*
X61484761Y-22690141D01*
X61441244Y-22771557D01*
X61369264Y-22859264D01*
X61281557Y-22931244D01*
X61217601Y-22965429D01*
X61181495Y-22984728D01*
X61181492Y-22984729D01*
X61072916Y-23017666D01*
X60960000Y-23028787D01*
X60847085Y-23017666D01*
X60738509Y-22984729D01*
X60738506Y-22984728D01*
X60702400Y-22965429D01*
X60638444Y-22931244D01*
X60550737Y-22859264D01*
X60478757Y-22771557D01*
X60435239Y-22690141D01*
X60421625Y-22669766D01*
X60404298Y-22652439D01*
X60383924Y-22638826D01*
X60361285Y-22629448D01*
X60337252Y-22624668D01*
X60312748Y-22624668D01*
X60288715Y-22629448D01*
X60266076Y-22638826D01*
X60245701Y-22652440D01*
X60228374Y-22669767D01*
X60214761Y-22690141D01*
X60171244Y-22771557D01*
X60099264Y-22859264D01*
X60011557Y-22931244D01*
X59947601Y-22965429D01*
X59911495Y-22984728D01*
X59911492Y-22984729D01*
X59802916Y-23017666D01*
X59690000Y-23028787D01*
X59577085Y-23017666D01*
X59468509Y-22984729D01*
X59468506Y-22984728D01*
X59432400Y-22965429D01*
X59368444Y-22931244D01*
X59280737Y-22859264D01*
X59217622Y-22782359D01*
X59200297Y-22765034D01*
X59179923Y-22751420D01*
X59157284Y-22742043D01*
X59133250Y-22737263D01*
X59108746Y-22737263D01*
X59084713Y-22742044D01*
X59062074Y-22751421D01*
X59041700Y-22765035D01*
X59024373Y-22782362D01*
X59010759Y-22802736D01*
X59001382Y-22825375D01*
X58996000Y-22861660D01*
X58996000Y-23026000D01*
X57844000Y-23026000D01*
X57844000Y-21424000D01*
X58996000Y-21424000D01*
X58996000Y-21588341D01*
X58998402Y-21612727D01*
X59005515Y-21636176D01*
X59017066Y-21657787D01*
X59032611Y-21676729D01*
X59051553Y-21692274D01*
X59073164Y-21703825D01*
X59096613Y-21710938D01*
X59120999Y-21713340D01*
X59145385Y-21710938D01*
X59168834Y-21703825D01*
X59190445Y-21692274D01*
X59209387Y-21676729D01*
X59217608Y-21667657D01*
X59280736Y-21590736D01*
X59368443Y-21518756D01*
X59432399Y-21484571D01*
X59468505Y-21465272D01*
X59468508Y-21465271D01*
X59577084Y-21432334D01*
X59690000Y-21421213D01*
X59802915Y-21432334D01*
X59911491Y-21465271D01*
X59911494Y-21465272D01*
X59947600Y-21484571D01*
X60011556Y-21518756D01*
X60099264Y-21590736D01*
X60171244Y-21678443D01*
X60214761Y-21759859D01*
X60228375Y-21780234D01*
X60245702Y-21797561D01*
X60266076Y-21811174D01*
X60288715Y-21820552D01*
X60312748Y-21825332D01*
X60337252Y-21825332D01*
X60361285Y-21820552D01*
X60383924Y-21811174D01*
X60404299Y-21797560D01*
X60421626Y-21780233D01*
X60435239Y-21759860D01*
X60478756Y-21678444D01*
X60550736Y-21590736D01*
X60638443Y-21518756D01*
X60702399Y-21484571D01*
X60738505Y-21465272D01*
X60738508Y-21465271D01*
X60847084Y-21432334D01*
X60960000Y-21421213D01*
X61072915Y-21432334D01*
G37*
G36*
X49778228Y-19501703D02*
G01*
X49933100Y-19565853D01*
X50072481Y-19658985D01*
X50191015Y-19777519D01*
X50284147Y-19916900D01*
X50348297Y-20071772D01*
X50381000Y-20236184D01*
X50381000Y-20403816D01*
X50348297Y-20568228D01*
X50284147Y-20723100D01*
X50191015Y-20862481D01*
X50072481Y-20981015D01*
X49933100Y-21074147D01*
X49778228Y-21138297D01*
X49613816Y-21171000D01*
X49446184Y-21171000D01*
X49281772Y-21138297D01*
X49126900Y-21074147D01*
X48987519Y-20981015D01*
X48868985Y-20862481D01*
X48775853Y-20723100D01*
X48711703Y-20568228D01*
X48679000Y-20403816D01*
X48679000Y-20236184D01*
X48711703Y-20071772D01*
X48775853Y-19916900D01*
X48868985Y-19777519D01*
X48987519Y-19658985D01*
X49126900Y-19565853D01*
X49281772Y-19501703D01*
X49446184Y-19469000D01*
X49613816Y-19469000D01*
X49778228Y-19501703D01*
G37*
G36*
X34538228Y-19501703D02*
G01*
X34693100Y-19565853D01*
X34832481Y-19658985D01*
X34951015Y-19777519D01*
X35044147Y-19916900D01*
X35108297Y-20071772D01*
X35141000Y-20236184D01*
X35141000Y-20403816D01*
X35108297Y-20568228D01*
X35044147Y-20723100D01*
X34951015Y-20862481D01*
X34832481Y-20981015D01*
X34693100Y-21074147D01*
X34538228Y-21138297D01*
X34373816Y-21171000D01*
X34206184Y-21171000D01*
X34041772Y-21138297D01*
X33886900Y-21074147D01*
X33747519Y-20981015D01*
X33628985Y-20862481D01*
X33535853Y-20723100D01*
X33471703Y-20568228D01*
X33439000Y-20403816D01*
X33439000Y-20236184D01*
X33471703Y-20071772D01*
X33535853Y-19916900D01*
X33628985Y-19777519D01*
X33747519Y-19658985D01*
X33886900Y-19565853D01*
X34041772Y-19501703D01*
X34206184Y-19469000D01*
X34373816Y-19469000D01*
X34538228Y-19501703D01*
G37*
G36*
X35141000Y-18631000D02*
G01*
X33439000Y-18631000D01*
X33439000Y-16929000D01*
X35141000Y-16929000D01*
X35141000Y-18631000D01*
G37*
G36*
X49778228Y-16961703D02*
G01*
X49933100Y-17025853D01*
X50072481Y-17118985D01*
X50191015Y-17237519D01*
X50284147Y-17376900D01*
X50348297Y-17531772D01*
X50381000Y-17696184D01*
X50381000Y-17863816D01*
X50348297Y-18028228D01*
X50284147Y-18183100D01*
X50191015Y-18322481D01*
X50072481Y-18441015D01*
X49933100Y-18534147D01*
X49778228Y-18598297D01*
X49613816Y-18631000D01*
X49446184Y-18631000D01*
X49281772Y-18598297D01*
X49126900Y-18534147D01*
X48987519Y-18441015D01*
X48868985Y-18322481D01*
X48775853Y-18183100D01*
X48711703Y-18028228D01*
X48679000Y-17863816D01*
X48679000Y-17696184D01*
X48711703Y-17531772D01*
X48775853Y-17376900D01*
X48868985Y-17237519D01*
X48987519Y-17118985D01*
X49126900Y-17025853D01*
X49281772Y-16961703D01*
X49446184Y-16929000D01*
X49613816Y-16929000D01*
X49778228Y-16961703D01*
G37*
G36*
X59938228Y-16326703D02*
G01*
X60093100Y-16390853D01*
X60232481Y-16483985D01*
X60351015Y-16602519D01*
X60444147Y-16741900D01*
X60508297Y-16896772D01*
X60541000Y-17061184D01*
X60541000Y-17228816D01*
X60508297Y-17393228D01*
X60444147Y-17548100D01*
X60351015Y-17687481D01*
X60232481Y-17806015D01*
X60093100Y-17899147D01*
X59938228Y-17963297D01*
X59773816Y-17996000D01*
X59606184Y-17996000D01*
X59441772Y-17963297D01*
X59286900Y-17899147D01*
X59147519Y-17806015D01*
X59028985Y-17687481D01*
X58935853Y-17548100D01*
X58871703Y-17393228D01*
X58839000Y-17228816D01*
X58839000Y-17061184D01*
X58871703Y-16896772D01*
X58935853Y-16741900D01*
X59028985Y-16602519D01*
X59147519Y-16483985D01*
X59286900Y-16390853D01*
X59441772Y-16326703D01*
X59606184Y-16294000D01*
X59773816Y-16294000D01*
X59938228Y-16326703D01*
G37*
G36*
X54858228Y-16326703D02*
G01*
X55013100Y-16390853D01*
X55152481Y-16483985D01*
X55271015Y-16602519D01*
X55364147Y-16741900D01*
X55428297Y-16896772D01*
X55461000Y-17061184D01*
X55461000Y-17228816D01*
X55428297Y-17393228D01*
X55364147Y-17548100D01*
X55271015Y-17687481D01*
X55152481Y-17806015D01*
X55013100Y-17899147D01*
X54858228Y-17963297D01*
X54693816Y-17996000D01*
X54526184Y-17996000D01*
X54361772Y-17963297D01*
X54206900Y-17899147D01*
X54067519Y-17806015D01*
X53948985Y-17687481D01*
X53855853Y-17548100D01*
X53791703Y-17393228D01*
X53759000Y-17228816D01*
X53759000Y-17061184D01*
X53791703Y-16896772D01*
X53855853Y-16741900D01*
X53948985Y-16602519D01*
X54067519Y-16483985D01*
X54206900Y-16390853D01*
X54361772Y-16326703D01*
X54526184Y-16294000D01*
X54693816Y-16294000D01*
X54858228Y-16326703D01*
G37*
G36*
X8068903Y-11713213D02*
G01*
X8291177Y-11757426D01*
X8709932Y-11930880D01*
X9086802Y-12182696D01*
X9407304Y-12503198D01*
X9659120Y-12880068D01*
X9832574Y-13298823D01*
X9921000Y-13743371D01*
X9921000Y-14196629D01*
X9832574Y-14641177D01*
X9659120Y-15059932D01*
X9407304Y-15436802D01*
X9086802Y-15757304D01*
X8709932Y-16009120D01*
X8291177Y-16182574D01*
X8068903Y-16226787D01*
X7846630Y-16271000D01*
X7393370Y-16271000D01*
X7171097Y-16226787D01*
X6948823Y-16182574D01*
X6530068Y-16009120D01*
X6153198Y-15757304D01*
X5832696Y-15436802D01*
X5580880Y-15059932D01*
X5407426Y-14641177D01*
X5319000Y-14196629D01*
X5319000Y-13743371D01*
X5407426Y-13298823D01*
X5580880Y-12880068D01*
X5832696Y-12503198D01*
X6153198Y-12182696D01*
X6530068Y-11930880D01*
X6948823Y-11757426D01*
X7171097Y-11713213D01*
X7393370Y-11669000D01*
X7846630Y-11669000D01*
X8068903Y-11713213D01*
G37*
G36*
X20768903Y-11713213D02*
G01*
X20991177Y-11757426D01*
X21409932Y-11930880D01*
X21786802Y-12182696D01*
X22107304Y-12503198D01*
X22359120Y-12880068D01*
X22532574Y-13298823D01*
X22621000Y-13743371D01*
X22621000Y-14196629D01*
X22532574Y-14641177D01*
X22359120Y-15059932D01*
X22107304Y-15436802D01*
X21786802Y-15757304D01*
X21409932Y-16009120D01*
X20991177Y-16182574D01*
X20768903Y-16226787D01*
X20546630Y-16271000D01*
X20093370Y-16271000D01*
X19871097Y-16226787D01*
X19648823Y-16182574D01*
X19230068Y-16009120D01*
X18853198Y-15757304D01*
X18532696Y-15436802D01*
X18280880Y-15059932D01*
X18107426Y-14641177D01*
X18019000Y-14196629D01*
X18019000Y-13743371D01*
X18107426Y-13298823D01*
X18280880Y-12880068D01*
X18532696Y-12503198D01*
X18853198Y-12182696D01*
X19230068Y-11930880D01*
X19648823Y-11757426D01*
X19871097Y-11713213D01*
X20093370Y-11669000D01*
X20546630Y-11669000D01*
X20768903Y-11713213D01*
G37*
G36*
X14418903Y-11713213D02*
G01*
X14641177Y-11757426D01*
X15059932Y-11930880D01*
X15436802Y-12182696D01*
X15757304Y-12503198D01*
X16009120Y-12880068D01*
X16182574Y-13298823D01*
X16271000Y-13743371D01*
X16271000Y-14196629D01*
X16182574Y-14641177D01*
X16009120Y-15059932D01*
X15757304Y-15436802D01*
X15436802Y-15757304D01*
X15059932Y-16009120D01*
X14641177Y-16182574D01*
X14418903Y-16226787D01*
X14196630Y-16271000D01*
X13743370Y-16271000D01*
X13521097Y-16226787D01*
X13298823Y-16182574D01*
X12880068Y-16009120D01*
X12503198Y-15757304D01*
X12182696Y-15436802D01*
X11930880Y-15059932D01*
X11757426Y-14641177D01*
X11669000Y-14196629D01*
X11669000Y-13743371D01*
X11757426Y-13298823D01*
X11930880Y-12880068D01*
X12182696Y-12503198D01*
X12503198Y-12182696D01*
X12880068Y-11930880D01*
X13298823Y-11757426D01*
X13521097Y-11713213D01*
X13743370Y-11669000D01*
X14196630Y-11669000D01*
X14418903Y-11713213D01*
G37*
G36*
X27571000Y-14871000D02*
G01*
X25769000Y-14871000D01*
X25769000Y-13069000D01*
X27571000Y-13069000D01*
X27571000Y-14871000D01*
G37*
G36*
X61861000Y-10426000D02*
G01*
X60059000Y-10426000D01*
X60059000Y-8624000D01*
X61861000Y-8624000D01*
X61861000Y-10426000D01*
G37*
G36*
X65671000Y-10426000D02*
G01*
X63869000Y-10426000D01*
X63869000Y-8624000D01*
X65671000Y-8624000D01*
X65671000Y-10426000D01*
G37*
G36*
X58051000Y-10426000D02*
G01*
X56249000Y-10426000D01*
X56249000Y-8624000D01*
X58051000Y-8624000D01*
X58051000Y-10426000D01*
G37*
G36*
X54241000Y-10426000D02*
G01*
X52439000Y-10426000D01*
X52439000Y-8624000D01*
X54241000Y-8624000D01*
X54241000Y-10426000D01*
G37*
G36*
X20768903Y-2823213D02*
G01*
X20991177Y-2867426D01*
X21409932Y-3040880D01*
X21786802Y-3292696D01*
X22107304Y-3613198D01*
X22359120Y-3990068D01*
X22532574Y-4408823D01*
X22621000Y-4853371D01*
X22621000Y-5306629D01*
X22532574Y-5751177D01*
X22359120Y-6169932D01*
X22107304Y-6546802D01*
X21786802Y-6867304D01*
X21409932Y-7119120D01*
X20991177Y-7292574D01*
X20768903Y-7336787D01*
X20546630Y-7381000D01*
X20093370Y-7381000D01*
X19871097Y-7336787D01*
X19648823Y-7292574D01*
X19230068Y-7119120D01*
X18853198Y-6867304D01*
X18532696Y-6546802D01*
X18280880Y-6169932D01*
X18107426Y-5751177D01*
X18019000Y-5306629D01*
X18019000Y-4853371D01*
X18107426Y-4408823D01*
X18280880Y-3990068D01*
X18532696Y-3613198D01*
X18853198Y-3292696D01*
X19230068Y-3040880D01*
X19648823Y-2867426D01*
X19871097Y-2823213D01*
X20093370Y-2779000D01*
X20546630Y-2779000D01*
X20768903Y-2823213D01*
G37*
G36*
X14418903Y-2823213D02*
G01*
X14641177Y-2867426D01*
X15059932Y-3040880D01*
X15436802Y-3292696D01*
X15757304Y-3613198D01*
X16009120Y-3990068D01*
X16182574Y-4408823D01*
X16271000Y-4853371D01*
X16271000Y-5306629D01*
X16182574Y-5751177D01*
X16009120Y-6169932D01*
X15757304Y-6546802D01*
X15436802Y-6867304D01*
X15059932Y-7119120D01*
X14641177Y-7292574D01*
X14418903Y-7336787D01*
X14196630Y-7381000D01*
X13743370Y-7381000D01*
X13521097Y-7336787D01*
X13298823Y-7292574D01*
X12880068Y-7119120D01*
X12503198Y-6867304D01*
X12182696Y-6546802D01*
X11930880Y-6169932D01*
X11757426Y-5751177D01*
X11669000Y-5306629D01*
X11669000Y-4853371D01*
X11757426Y-4408823D01*
X11930880Y-3990068D01*
X12182696Y-3613198D01*
X12503198Y-3292696D01*
X12880068Y-3040880D01*
X13298823Y-2867426D01*
X13521097Y-2823213D01*
X13743370Y-2779000D01*
X14196630Y-2779000D01*
X14418903Y-2823213D01*
G37*
G36*
X8068903Y-2823213D02*
G01*
X8291177Y-2867426D01*
X8709932Y-3040880D01*
X9086802Y-3292696D01*
X9407304Y-3613198D01*
X9659120Y-3990068D01*
X9832574Y-4408823D01*
X9921000Y-4853371D01*
X9921000Y-5306629D01*
X9832574Y-5751177D01*
X9659120Y-6169932D01*
X9407304Y-6546802D01*
X9086802Y-6867304D01*
X8709932Y-7119120D01*
X8291177Y-7292574D01*
X8068903Y-7336787D01*
X7846630Y-7381000D01*
X7393370Y-7381000D01*
X7171097Y-7336787D01*
X6948823Y-7292574D01*
X6530068Y-7119120D01*
X6153198Y-6867304D01*
X5832696Y-6546802D01*
X5580880Y-6169932D01*
X5407426Y-5751177D01*
X5319000Y-5306629D01*
X5319000Y-4853371D01*
X5407426Y-4408823D01*
X5580880Y-3990068D01*
X5832696Y-3613198D01*
X6153198Y-3292696D01*
X6530068Y-3040880D01*
X6948823Y-2867426D01*
X7171097Y-2823213D01*
X7393370Y-2779000D01*
X7846630Y-2779000D01*
X8068903Y-2823213D01*
G37*
G36*
X42023512Y-4183927D02*
G01*
X42172812Y-4213624D01*
X42336784Y-4281544D01*
X42484354Y-4380147D01*
X42609853Y-4505646D01*
X42708456Y-4653216D01*
X42776376Y-4817188D01*
X42811000Y-4991259D01*
X42811000Y-5168741D01*
X42776376Y-5342812D01*
X42708456Y-5506784D01*
X42609853Y-5654354D01*
X42484354Y-5779853D01*
X42336784Y-5878456D01*
X42172812Y-5946376D01*
X42023512Y-5976073D01*
X41998742Y-5981000D01*
X41821258Y-5981000D01*
X41796488Y-5976073D01*
X41647188Y-5946376D01*
X41483216Y-5878456D01*
X41335646Y-5779853D01*
X41210147Y-5654354D01*
X41111544Y-5506784D01*
X41043624Y-5342812D01*
X41009000Y-5168741D01*
X41009000Y-4991259D01*
X41043624Y-4817188D01*
X41111544Y-4653216D01*
X41210147Y-4505646D01*
X41335646Y-4380147D01*
X41483216Y-4281544D01*
X41647188Y-4213624D01*
X41796488Y-4183927D01*
X41821258Y-4179000D01*
X41998742Y-4179000D01*
X42023512Y-4183927D01*
G37*
G36*
X36943512Y-4183927D02*
G01*
X37092812Y-4213624D01*
X37256784Y-4281544D01*
X37404354Y-4380147D01*
X37529853Y-4505646D01*
X37628456Y-4653216D01*
X37696376Y-4817188D01*
X37731000Y-4991259D01*
X37731000Y-5168741D01*
X37696376Y-5342812D01*
X37628456Y-5506784D01*
X37529853Y-5654354D01*
X37404354Y-5779853D01*
X37256784Y-5878456D01*
X37092812Y-5946376D01*
X36943512Y-5976073D01*
X36918742Y-5981000D01*
X36741258Y-5981000D01*
X36716488Y-5976073D01*
X36567188Y-5946376D01*
X36403216Y-5878456D01*
X36255646Y-5779853D01*
X36130147Y-5654354D01*
X36031544Y-5506784D01*
X35963624Y-5342812D01*
X35929000Y-5168741D01*
X35929000Y-4991259D01*
X35963624Y-4817188D01*
X36031544Y-4653216D01*
X36130147Y-4505646D01*
X36255646Y-4380147D01*
X36403216Y-4281544D01*
X36567188Y-4213624D01*
X36716488Y-4183927D01*
X36741258Y-4179000D01*
X36918742Y-4179000D01*
X36943512Y-4183927D01*
G37*
G36*
X39483512Y-4183927D02*
G01*
X39632812Y-4213624D01*
X39796784Y-4281544D01*
X39944354Y-4380147D01*
X40069853Y-4505646D01*
X40168456Y-4653216D01*
X40236376Y-4817188D01*
X40271000Y-4991259D01*
X40271000Y-5168741D01*
X40236376Y-5342812D01*
X40168456Y-5506784D01*
X40069853Y-5654354D01*
X39944354Y-5779853D01*
X39796784Y-5878456D01*
X39632812Y-5946376D01*
X39483512Y-5976073D01*
X39458742Y-5981000D01*
X39281258Y-5981000D01*
X39256488Y-5976073D01*
X39107188Y-5946376D01*
X38943216Y-5878456D01*
X38795646Y-5779853D01*
X38670147Y-5654354D01*
X38571544Y-5506784D01*
X38503624Y-5342812D01*
X38469000Y-5168741D01*
X38469000Y-4991259D01*
X38503624Y-4817188D01*
X38571544Y-4653216D01*
X38670147Y-4505646D01*
X38795646Y-4380147D01*
X38943216Y-4281544D01*
X39107188Y-4213624D01*
X39256488Y-4183927D01*
X39281258Y-4179000D01*
X39458742Y-4179000D01*
X39483512Y-4183927D01*
G37*
G36*
X45351000Y-5981000D02*
G01*
X43549000Y-5981000D01*
X43549000Y-4179000D01*
X45351000Y-4179000D01*
X45351000Y-5981000D01*
G37*
G36*
X65671000Y-5981000D02*
G01*
X63869000Y-5981000D01*
X63869000Y-4179000D01*
X65671000Y-4179000D01*
X65671000Y-5981000D01*
G37*
G36*
X61861000Y-5981000D02*
G01*
X60059000Y-5981000D01*
X60059000Y-4179000D01*
X61861000Y-4179000D01*
X61861000Y-5981000D01*
G37*
G36*
X27571000Y-5981000D02*
G01*
X25769000Y-5981000D01*
X25769000Y-4179000D01*
X27571000Y-4179000D01*
X27571000Y-5981000D01*
G37*
G36*
X54241000Y-5981000D02*
G01*
X52439000Y-5981000D01*
X52439000Y-4179000D01*
X54241000Y-4179000D01*
X54241000Y-5981000D01*
G37*
G36*
X58051000Y-5981000D02*
G01*
X56249000Y-5981000D01*
X56249000Y-4179000D01*
X58051000Y-4179000D01*
X58051000Y-5981000D01*
G37*
M02*
